<svg version="1.1" viewBox="0.0 0.0 754.0 268.0" fill="none" stroke="none" stroke-linecap="square" stroke-miterlimit="10" xmlns:xlink="http://www.w3.org/1999/xlink" xmlns="http://www.w3.org/2000/svg"><clipPath id="p.0"><path d="m0 0l754.0 0l0 268.0l-754.0 0l0 -268.0z" clip-rule="nonzero"/></clipPath><g clip-path="url(#p.0)"><path fill="#000000" fill-opacity="0.0" d="m0 0l754.0 0l0 268.0l-754.0 0z" fill-rule="evenodd"/><path fill="#000000" d="m32.906002 34.593174l191.43307 0l0 193.07088l-191.43307 0z" fill-rule="evenodd"/><path stroke="#000000" stroke-width="1.0" stroke-linejoin="round" stroke-linecap="butt" d="m32.906002 34.593174l191.43307 0l0 193.07088l-191.43307 0z" fill-rule="evenodd"/><path fill="#000000" fill-opacity="0.0" d="m241.62204 54.372704l509.38583 0l0 153.5433l-509.38583 0z" fill-rule="evenodd"/><path fill="#ffffff" d="m273.92508 123.978516q0 -20.796875 -1.734375 -36.65625q0 -4.140625 3.46875 -7.203125q3.46875 -3.0625 9.203125 -4.671875q11.453125 -2.921875 25.1875 -2.921875q17.734375 0 27.9375 7.796875q10.203125 7.796875 10.203125 23.9375q0 16.125 -13.078125 25.859375q-13.0625 9.734375 -31.859375 9.734375q-9.59375 0 -20.125 -4.0q-0.671875 6.390625 -0.671875 17.328125l0.140625 6.53125q0 3.203125 -0.140625 6.671875q-0.671875 0.9375 -1.46875 1.328125q-0.796875 0.40625 -1.140625 0.59375q-0.328125 0.203125 -1.0 0.328125q-0.65625 0.140625 -0.921875 0.140625q-0.796875 0.28125 -1.875 0.28125l-2.265625 0q-0.265625 -10.0 -0.265625 -18.0l0.40625 -27.078125zm8.9375 2.265625q9.734375 6.546875 23.328125 6.484375q13.59375 -0.078125 22.921875 -8.40625q9.34375 -8.34375 9.34375 -20.46875q0 -12.140625 -9.609375 -18.140625q-9.59375 -6.0 -23.0 -6.0q-13.390625 0 -23.65625 6.140625q0.671875 8.671875 0.671875 40.390625zm108.52573 -15.328125q0 -9.59375 6.125 -9.59375q1.203125 0 2.40625 0.265625q0 1.59375 0 8.671875q0 7.0625 1.859375 28.265625q1.875 21.1875 1.875 31.71875q0 16.79686 -5.875 23.20311q-5.859375 6.40625 -19.921875 6.40625q-14.0625 0 -26.46875 -9.078125q2.40625 -2.921875 6.265625 -2.921875q1.46875 0.125 4.671875 2.0q9.453125 5.59375 15.734375 5.59375q9.328125 0 13.1875 -5.875q3.875 -5.859375 3.875 -19.718735q0 -3.34375 -0.671875 -24.0q-0.125 0.390625 -0.9375 3.390625q-0.796875 3.0 -1.203125 3.9375q-0.390625 0.9375 -1.390625 3.46875q-1.0 2.53125 -2.078125 3.609375q-1.0625 1.0625 -2.78125 2.515625q-2.9375 2.671875 -7.40625 2.671875q-4.46875 0 -7.140625 -1.1875q-2.65625 -1.203125 -4.46875 -3.734375q-1.796875 -2.546875 -3.203125 -5.34375q-1.390625 -2.796875 -2.1875 -7.125q-0.796875 -4.34375 -1.265625 -7.9375q-0.46875 -3.609375 -0.671875 -8.796875q-0.203125 -5.203125 -0.265625 -8.671875q-0.0625 -3.46875 -0.0625 -8.796875l0 -8.0q1.328125 -2.265625 4.796875 -2.265625q4.796875 0 4.796875 3.46875l-0.796875 12.921875q0 16.9375 3.59375 29.203125q3.609375 12.265625 7.46875 12.265625q2.9375 0 5.203125 -3.1875q2.265625 -3.203125 3.46875 -9.0q1.203125 -5.8125 2.0 -11.0q0.796875 -5.203125 1.0625 -12.140625q0.40625 -10.53125 0.40625 -15.203125zm40.131073 -37.859375q-1.328125 60.265625 -1.46875 94.125q-2.0 2.140625 -3.53125 2.140625q-1.53125 0 -2.609375 -0.671875q-3.0625 -2.0 -3.0625 -7.46875q0.265625 -64.125 0.9375 -75.0625q0.671875 -10.9375 2.0 -12.671875q1.328125 -1.734375 3.1875 -1.734375q1.875 0 4.546875 1.34375zm72.40289 90.125q-2.40625 2.53125 -5.46875 2.53125q-5.734375 0 -8.546875 -6.125q-2.796875 -6.140625 -3.265625 -14.9375q-0.453125 -8.796875 -0.59375 -17.59375q-0.125 -8.8125 -1.40625 -14.9375q-1.265625 -6.140625 -4.71875 -6.140625q-4.671875 0 -7.9375 8.40625q-3.265625 8.40625 -4.609375 18.671875q-3.71875 28.65625 -7.1875 32.125q-2.40625 1.203125 -4.140625 1.203125q-1.734375 0 -2.9375 -0.40625q-2.796875 -12.265625 -3.59375 -42.265625q-0.265625 -14.921875 -0.53125 -19.328125q2.796875 -1.859375 4.796875 -1.859375q2.0 0 3.203125 0.390625q0.671875 5.734375 0.734375 23.46875q0.0625 17.734375 0.203125 20.40625q0.65625 -2.8125 1.65625 -9.078125q1.0 -6.265625 1.796875 -10.328125q0.8125 -4.0625 2.546875 -9.53125q1.734375 -5.46875 3.859375 -8.734375q2.140625 -3.265625 5.859375 -5.59375q3.734375 -2.34375 8.40625 -2.34375q6.265625 0 9.125 5.671875q2.875 5.671875 3.140625 14.078125q0.265625 8.390625 0.328125 17.0625q0.078125 8.65625 2.140625 15.859375q2.0625 7.203125 7.140625 9.328125zm8.792389 -52.125q-6.0000305 0 -8.1406555 -2.9375q0 -2.140625 1.796875 -3.328125q1.8125 -1.203125 3.9375 -1.53125q2.1406555 -0.34375 6.9375305 -0.609375q0.40625 -3.59375 0.46875 -9.265625q0.0625 -5.671875 0.203125 -9.671875q0.390625 -10.53125 3.203125 -12.921875q1.1875 -1.078125 2.59375 -1.078125q1.40625 0 2.46875 0.28125q0.390625 9.59375 0.390625 11.59375l-0.796875 20.0q0.265625 0.125 1.46875 0.125l9.59375 -0.390625q10.40625 0 10.40625 3.203125q0 4.53125 -3.734375 5.328125q-1.734375 0.390625 -4.0625 0.390625q-2.328125 0 -6.0 -0.59375q-3.671875 -0.59375 -5.28125 -0.59375q-1.59375 0 -2.125 0.125q-0.390625 3.875 -0.390625 7.671875q0 3.796875 0.1875 9.46875q0.203125 5.65625 1.0625 13.53125q0.875 7.859375 3.8125 13.53125q2.9375 5.671875 7.46875 5.671875q2.265625 0 5.328125 -1.796875q3.0625 -1.8125 4.734375 -1.8125q1.671875 0 2.9375 0.734375q1.265625 0.734375 1.265625 1.671875q0 2.796875 -5.671875 5.40625q-5.65625 2.59375 -9.65625 2.59375q-14.671875 0 -18.28125 -27.734375q-1.0625 -8.0 -1.59375 -27.46875q-2.125 0.40625 -4.53125 0.40625zm54.40332 28.796875q-0.265625 2.65625 -0.265625 3.59375q0 8.0 4.859375 12.40625q4.859375 4.390625 11.53125 4.390625q6.671875 0 10.859375 -1.859375q4.203125 -1.875 6.078125 -4.0q4.796875 -6.0 8.796875 -6.0q1.46875 0 3.46875 0.796875q-1.328125 6.53125 -10.0625 11.9375q-8.734375 5.390625 -21.9375 5.390625q-9.328125 0 -16.0625 -5.921875q-6.734375 -5.9375 -6.734375 -16.203125q0 -10.265625 4.0625 -19.921875q4.0625 -9.671875 11.734375 -16.53125q7.671875 -6.875 15.59375 -6.875q7.9375 0 12.796875 3.265625q4.875 3.265625 4.875 9.53125q0 11.59375 -10.34375 19.125q-10.328125 7.53125 -21.921875 7.53125q-3.0625 0 -7.328125 -0.65625zm10.125 -4.40625q6.265625 0 11.203125 -4.0q4.9375 -4.0 7.0 -8.390625q2.0625 -4.40625 2.0625 -8.0q0 -3.609375 -2.796875 -6.34375q-2.796875 -2.734375 -6.53125 -2.734375q-6.671875 0 -12.34375 9.203125q-5.65625 9.203125 -8.0625 19.0625q5.875 1.203125 9.46875 1.203125zm59.204895 18.40625l0.390625 7.59375q0 2.9375 -1.671875 4.078125q-1.65625 1.125 -3.328125 1.125q-1.65625 0 -3.390625 -0.53125q-2.9375 -15.46875 -4.46875 -38.53125q-1.53125 -23.0625 -1.796875 -26.140625q2.0 -1.859375 4.1875 -1.859375q2.203125 0 3.9375 0.53125q0.53125 3.859375 0.796875 17.0625q0.265625 13.203125 0.671875 16.53125q1.859375 -11.1875 6.671875 -20.921875q2.65625 -5.46875 6.984375 -8.734375q4.34375 -3.265625 9.34375 -3.265625q5.0 0 9.203125 4.46875q4.203125 4.453125 4.203125 8.0625q0 1.328125 -1.609375 2.0625q-1.59375 0.734375 -3.53125 0.734375q-1.9375 0 -3.0 -1.46875q-1.0625 -1.46875 -1.46875 -3.265625q-0.390625 -1.796875 -1.734375 -3.265625q-1.328125 -1.46875 -3.59375 -1.46875q-6.0 0 -10.265625 10.796875q-6.53125 16.140625 -6.53125 36.40625zm46.787537 8.921875q0.40625 10.8125 2.671875 30.54686q-2.53125 2.53125 -6.0 2.53125q-0.671875 0 -1.46875 -0.140625q-0.125 -5.203125 -1.9375 -23.60936q-1.796875 -18.390625 -1.796875 -28.1875q0 -9.796875 1.203125 -17.0q1.203125 -7.203125 4.140625 -13.46875q6.0 -12.921875 22.125 -12.921875q10.0 0 16.390625 10.9375q6.40625 10.921875 6.40625 25.453125q0 11.46875 -7.46875 20.140625q-7.46875 8.65625 -20.65625 8.65625q-8.140625 0 -13.609375 -2.9375zm17.875 -55.0625q-11.34375 0 -15.0625 11.734375q-3.203125 10.0 -3.203125 27.609375q0 6.390625 0.125 9.453125q11.875 2.546875 16.140625 2.546875q7.734375 0 12.265625 -6.203125q4.53125 -6.203125 4.53125 -15.140625q0 -13.1875 -3.9375 -21.59375q-3.921875 -8.40625 -10.859375 -8.40625z" fill-rule="nonzero"/><path fill="#f9cb9c" d="m32.837692 34.834667l65.51181 0l0 67.87401l-65.51181 0z" fill-rule="evenodd"/><path fill="#b6d7a8" d="m32.837692 102.80315l65.51181 0l0 124.755905l-65.51181 0z" fill-rule="evenodd"/><path fill="#c27ba0" d="m98.36794 34.834667l125.826775 0l0 67.87401l-125.826775 0z" fill-rule="evenodd"/><path fill="#9fc5e8" d="m98.36794 102.80315l125.826775 0l0 124.755905l-125.826775 0z" fill-rule="evenodd"/><path fill="#000000" fill-opacity="0.0" d="m224.32315 9.433071l-0.3464508 240.0" fill-rule="evenodd"/><path stroke="#d9d9d9" stroke-width="2.0" stroke-linejoin="round" stroke-linecap="butt" d="m224.32315 9.433071l-0.3464508 240.0" fill-rule="evenodd"/><path fill="#000000" fill-opacity="0.0" d="m249.62254 34.968357l-240.0 -0.34645844" fill-rule="evenodd"/><path stroke="#d9d9d9" stroke-width="2.0" stroke-linejoin="round" stroke-linecap="butt" d="m249.62254 34.968357l-240.0 -0.34645844" fill-rule="evenodd"/><path fill="#000000" fill-opacity="0.0" d="m32.374924 252.64568l0.34645844 -240.0" fill-rule="evenodd"/><path stroke="#d9d9d9" stroke-width="2.0" stroke-linejoin="round" stroke-linecap="butt" d="m32.374924 252.64568l0.34645844 -240.0" fill-rule="evenodd"/><path fill="#000000" fill-opacity="0.0" d="m249.62254 227.66544l-240.0 -0.3464508" fill-rule="evenodd"/><path stroke="#d9d9d9" stroke-width="2.0" stroke-linejoin="round" stroke-linecap="butt" d="m249.62254 227.66544l-240.0 -0.3464508" fill-rule="evenodd"/></g></svg>
