<svg version="1.1" viewBox="0.0 0.0 837.5590551181102 264.54068241469815" fill="none" stroke="none" stroke-linecap="square" stroke-miterlimit="10" xmlns:xlink="http://www.w3.org/1999/xlink" xmlns="http://www.w3.org/2000/svg"><clipPath id="p.0"><path d="m0 0l837.5591 0l0 264.54068l-837.5591 0l0 -264.54068z" clip-rule="nonzero"/></clipPath><g clip-path="url(#p.0)"><path fill="#000000" fill-opacity="0.0" d="m0 0l837.5591 0l0 264.54068l-837.5591 0z" fill-rule="evenodd"/><path fill="#cfe2f3" d="m104.136375 41.12404l291.1811 0l0 113.25984l-291.1811 0z" fill-rule="evenodd"/><path fill="#000000" d="m247.26767 103.43958l0 4.9375l-1.625 0l0 -12.875q0 -1.53125 0.40625 -2.390625q0.421875 -0.875 1.421875 -1.4375q1.015625 -0.578125 2.25 -0.578125q1.84375 0 2.78125 1.046875q0.9375 1.046875 0.9375 2.296875q0 1.21875 -0.765625 1.96875q-0.75 0.75 -1.734375 0.921875q1.578125 0.15625 2.4375 1.140625q0.875 0.984375 0.875 2.421875q0 1.546875 -1.015625 2.78125q-1.015625 1.21875 -2.9375 1.21875q-1.96875 0 -3.03125 -1.453125zm1.453125 -6.640625q1.671875 0 2.4375 -0.578125q0.765625 -0.578125 0.765625 -1.6875q0 -0.890625 -0.65625 -1.484375q-0.640625 -0.609375 -1.625 -0.609375q-0.84375 0 -1.46875 0.453125q-0.625 0.4375 -0.765625 0.984375q-0.140625 0.546875 -0.140625 1.921875l0 3.671875q0 1.5625 0.21875 2.296875q0.21875 0.734375 0.9375 1.328125q0.71875 0.59375 1.65625 0.59375q1.140625 0 1.796875 -0.78125q0.671875 -0.78125 0.671875 -1.921875q0 -0.953125 -0.5 -1.703125q-0.484375 -0.75 -1.203125 -1.015625q-0.703125 -0.265625 -1.890625 -0.265625l-0.234375 0l0 -1.203125z" fill-rule="nonzero"/><path fill="#fff2cc" d="m104.136375 154.36282l290.2992 0l0 72.62991l-290.2992 0z" fill-rule="evenodd"/><path fill="#000000" d="m245.67169 184.2384l7.296875 0l0 1.328125l-5.09375 0q0.90625 0.9375 2.84375 2.28125q1.734375 1.203125 2.421875 2.234375q0.6875 1.015625 0.6875 2.78125q0 2.359375 -1.28125 3.65625q-1.265625 1.296875 -3.3125 1.296875q-2.21875 0 -3.359375 -1.453125q-1.125 -1.46875 -1.125 -3.46875q0 -2.328125 1.1875 -3.546875q1.203125 -1.234375 2.859375 -1.296875q-0.84375 -0.59375 -3.125 -2.625l0 -1.1875zm0.75 8.671875q0 1.546875 0.8125 2.5625q0.828125 1.0 2.09375 1.0q1.109375 0 1.953125 -0.859375q0.859375 -0.859375 0.859375 -2.703125q0 -1.71875 -0.8125 -2.65625q-0.8125 -0.9375 -2.046875 -0.9375q-1.359375 0 -2.109375 1.0625q-0.75 1.046875 -0.75 2.53125z" fill-rule="nonzero"/><path fill="#d9ead3" d="m7.071916 41.12404l97.07087 0l0 113.25984l-97.07087 0z" fill-rule="evenodd"/><path fill="#000000" d="m58.620777 95.00208l1.671875 0q-0.625 2.0 -1.171875 4.828125q0.640625 3.515625 1.171875 4.84375l-1.625 0q-0.390625 -0.90625 -0.59375 -1.765625q-0.75 1.984375 -3.15625 1.984375q-1.828125 0 -2.9375 -1.359375q-1.109375 -1.375 -1.109375 -3.71875q0 -2.40625 1.109375 -3.71875q1.125 -1.3125 2.96875 -1.3125q1.125 0 1.84375 0.46875q0.734375 0.453125 1.34375 1.390625q0.0625 -0.328125 0.484375 -1.640625zm-3.40625 1.140625q-1.171875 0 -1.859375 0.953125q-0.6875 0.9375 -0.6875 2.71875q0 1.75 0.640625 2.75q0.65625 0.984375 1.8125 0.984375q1.140625 0 1.890625 -0.984375q0.75 -0.984375 0.75 -2.8125q0 -1.796875 -0.703125 -2.703125q-0.703125 -0.90625 -1.84375 -0.90625z" fill-rule="nonzero"/><path fill="#e6b8af" d="m7.071916 154.36282l97.07087 0l0 72.62991l-97.07087 0z" fill-rule="evenodd"/><path fill="#000000" d="m51.17766 187.9259l1.71875 0l2.703125 7.625l2.765625 -7.625l1.671875 0l-3.609375 9.671875l0 3.703125l-1.671875 0l0 -3.703125l-3.578125 -9.671875z" fill-rule="nonzero"/><path fill="#000000" fill-opacity="0.0" d="m6.9631114 40.807373l388.25198 0l0 185.88977l-388.25198 0z" fill-rule="evenodd"/><path stroke="#000000" stroke-width="1.0" stroke-linejoin="round" stroke-linecap="butt" d="m6.9631114 40.807373l388.25198 0l0 185.88977l-388.25198 0z" fill-rule="evenodd"/><path fill="#000000" fill-opacity="0.0" d="m105.028046 41.12404l-0.88188934 185.88977" fill-rule="evenodd"/><path stroke="#000000" stroke-width="1.0" stroke-linejoin="round" stroke-linecap="butt" d="m105.028046 41.12404l-0.88188934 185.88977" fill-rule="evenodd"/><path fill="#000000" fill-opacity="0.0" d="m6.9427896 2.3977625l87.18111 0l0 27.11811l-87.18111 0z" fill-rule="evenodd"/><path fill="#000000" d="m16.864664 11.177135l-1.328124 9.140625l-1.921875 0l-1.3125 -3.828125l-0.265625 -0.921875l-0.296875 0.984375l-1.265625 3.765625l-1.875 0l-1.3125005 -9.140625l1.5468755 0l0.765625 6.203125l0.15625 1.390625l0.390625 -1.21875l1.328125 -4.109375l1.140625 0l1.4375 4.0625l0.40625 1.203125l0.140625 -1.28125l0.703125 -6.25l1.562499 0z" fill-rule="nonzero"/><path fill="#000000" d="m23.496958 23.34901q0 0.90625 -0.1875 1.65625q-0.171875 0.75 -0.546875 1.296875q-0.359375 0.53125 -0.921875 0.828125q-0.546875 0.296875 -1.28125 0.296875q-0.640625 0 -1.171875 -0.234375q-0.515625 -0.25 -0.890625 -0.734375q-0.359375 -0.5 -0.5625 -1.265625q-0.203125 -0.78125 -0.203125 -1.84375q0 -0.90625 0.1875 -1.65625q0.1875 -0.75 0.546875 -1.28125q0.375 -0.546875 0.921875 -0.84375q0.5625 -0.296875 1.296875 -0.296875q0.640625 0 1.15625 0.25q0.515625 0.234375 0.890625 0.734375q0.375 0.5 0.5625 1.28125q0.203125 0.765625 0.203125 1.8125zm-1.0625 0.046875q0 -0.21875 -0.015625 -0.421875q-0.015625 -0.203125 -0.03125 -0.390625l-3.359375 2.5q0.09375 0.3125 0.234375 0.578125q0.140625 0.265625 0.328125 0.453125q0.203125 0.1875 0.453125 0.296875q0.25 0.109375 0.578125 0.109375q0.40625 0 0.734375 -0.203125q0.34375 -0.203125 0.578125 -0.59375q0.25 -0.390625 0.375 -0.96875q0.125 -0.59375 0.125 -1.359375zm-3.625 -0.078125q0 0.1875 0 0.375q0 0.1875 0.015625 0.359375l3.359375 -2.484375q-0.09375 -0.3125 -0.234375 -0.5625q-0.140625 -0.25 -0.328125 -0.4375q-0.1875 -0.1875 -0.4375 -0.28125q-0.25 -0.109375 -0.5625 -0.109375q-0.421875 0 -0.765625 0.203125q-0.328125 0.203125 -0.5625 0.59375q-0.234375 0.390625 -0.359375 0.984375q-0.125 0.59375 -0.125 1.359375zm11.291214 4.0l-5.0 0l0 -0.984375l2.046875 0l0 -5.796875l-1.90625 1.03125l-0.390625 -0.890625l2.53125 -1.328125l0.9375 0l0 6.984375l1.78125 0l0 0.984375z" fill-rule="nonzero"/><path fill="#000000" d="m46.761227 14.427135l-7.828125 0l0 -1.328125l7.828125 0l0 1.328125zm0 3.171875l-7.828125 0l0 -1.328125l7.828125 0l0 1.328125zm20.920834 -3.234375q0 1.375 -0.28125 2.5q-0.265625 1.125 -0.828125 1.9375q-0.546875 0.796875 -1.375 1.234375q-0.8125 0.4375 -1.9374962 0.4375q-0.953125 0 -1.734375 -0.359375q-0.78125 -0.359375 -1.34375 -1.09375q-0.546875 -0.75 -0.859375 -1.90625q-0.296875 -1.15625 -0.296875 -2.75q0 -1.359375 0.28125 -2.484375q0.28125 -1.140625 0.828125 -1.9375q0.546875 -0.8125 1.375 -1.25q0.84375 -0.4375 1.9375 -0.4375q0.9531212 0 1.7343712 0.359375q0.796875 0.359375 1.34375 1.109375q0.5625 0.75 0.859375 1.90625q0.296875 1.15625 0.296875 2.734375zm-1.59375 0.0625q0 -0.3125 -0.03125 -0.609375q-0.015625 -0.3125 -0.046875 -0.609375l-5.046871 3.75q0.140625 0.46875 0.34375 0.875q0.21875 0.390625 0.515625 0.6875q0.296875 0.28125 0.671875 0.453125q0.375 0.15625 0.859375 0.15625q0.625 0 1.1249962 -0.296875q0.515625 -0.3125 0.859375 -0.90625q0.359375 -0.59375 0.546875 -1.46875q0.203125 -0.875 0.203125 -2.03125zm-5.453121 -0.109375q0 0.28125 0 0.5625q0 0.28125 0.03125 0.546875l5.046871 -3.734375q-0.140625 -0.453125 -0.359375 -0.828125q-0.203125 -0.390625 -0.5 -0.671875q-0.28125 -0.28125 -0.65625 -0.4375q-0.3749962 -0.15625 -0.8437462 -0.15625q-0.609375 0 -1.125 0.3125q-0.5 0.296875 -0.859375 0.890625q-0.359375 0.59375 -0.546875 1.484375q-0.1875 0.875 -0.1875 2.03125z" fill-rule="nonzero"/><path fill="#000000" d="m2.0158122 40.89589l0 0c0 -2.565731 2.1715953 -4.645668 4.8503933 -4.645668l0 0c1.2864041 0 2.520121 0.48945236 3.4297462 1.3606834c0.90962505 0.8712311 1.4206476 2.0528755 1.4206476 3.2849846l0 0c0 2.565731 -2.1715956 4.645668 -4.850394 4.645668l0 0c-2.6787982 0 -4.8503933 -2.079937 -4.8503933 -4.645668z" fill-rule="evenodd"/><path stroke="#000000" stroke-width="1.0" stroke-linejoin="round" stroke-linecap="butt" d="m2.0158122 40.89589l0 0c0 -2.565731 2.1715953 -4.645668 4.8503933 -4.645668l0 0c1.2864041 0 2.520121 0.48945236 3.4297462 1.3606834c0.90962505 0.8712311 1.4206476 2.0528755 1.4206476 3.2849846l0 0c0 2.565731 -2.1715956 4.645668 -4.850394 4.645668l0 0c-2.6787982 0 -4.8503933 -2.079937 -4.8503933 -4.645668z" fill-rule="evenodd"/><path fill="#000000" d="m390.2723 41.137928l0 0c0 -2.565731 2.1716003 -4.645668 4.850403 -4.645668l0 0c1.2864075 0 2.520111 0.48945236 3.4297485 1.3606834c0.90963745 0.8712311 1.4206543 2.0528755 1.4206543 3.2849846l0 0c0 2.565731 -2.1716003 4.645668 -4.850403 4.645668l0 0c-2.6788025 0 -4.850403 -2.079937 -4.850403 -4.645668z" fill-rule="evenodd"/><path stroke="#000000" stroke-width="1.0" stroke-linejoin="round" stroke-linecap="butt" d="m390.2723 41.137928l0 0c0 -2.565731 2.1716003 -4.645668 4.850403 -4.645668l0 0c1.2864075 0 2.520111 0.48945236 3.4297485 1.3606834c0.90963745 0.8712311 1.4206543 2.0528755 1.4206543 3.2849846l0 0c0 2.565731 -2.1716003 4.645668 -4.850403 4.645668l0 0c-2.6788025 0 -4.850403 -2.079937 -4.850403 -4.645668z" fill-rule="evenodd"/><path fill="#000000" d="m2.0164757 227.16318l0 0c0 -2.5657349 2.171595 -4.6456604 4.850394 -4.6456604l0 0c1.2864041 0 2.520121 0.48944092 3.4297462 1.360672c0.90962505 0.87124634 1.4206476 2.052887 1.4206476 3.2849884l0 0c0 2.5657349 -2.1715956 4.6456757 -4.850394 4.6456757l0 0c-2.6787987 0 -4.850394 -2.0799408 -4.850394 -4.6456757z" fill-rule="evenodd"/><path stroke="#000000" stroke-width="1.0" stroke-linejoin="round" stroke-linecap="butt" d="m2.0164757 227.16318l0 0c0 -2.5657349 2.171595 -4.6456604 4.850394 -4.6456604l0 0c1.2864041 0 2.520121 0.48944092 3.4297462 1.360672c0.90962505 0.87124634 1.4206476 2.052887 1.4206476 3.2849884l0 0c0 2.5657349 -2.1715956 4.6456757 -4.850394 4.6456757l0 0c-2.6787987 0 -4.850394 -2.0799408 -4.850394 -4.6456757z" fill-rule="evenodd"/><path fill="#000000" d="m390.27167 227.16318l0 0c0 -2.5657349 2.1715698 -4.6456604 4.8503723 -4.6456604l0 0c1.2864075 0 2.5201416 0.48944092 3.4297485 1.360672c0.90963745 0.87124634 1.4206543 2.052887 1.4206543 3.2849884l0 0c0 2.5657349 -2.1716003 4.6456757 -4.850403 4.6456757l0 0c-2.6788025 0 -4.8503723 -2.0799408 -4.8503723 -4.6456757z" fill-rule="evenodd"/><path stroke="#000000" stroke-width="1.0" stroke-linejoin="round" stroke-linecap="butt" d="m390.27167 227.16318l0 0c0 -2.5657349 2.1715698 -4.6456604 4.8503723 -4.6456604l0 0c1.2864075 0 2.5201416 0.48944092 3.4297485 1.360672c0.90963745 0.87124634 1.4206543 2.052887 1.4206543 3.2849884l0 0c0 2.5657349 -2.1716003 4.6456757 -4.850403 4.6456757l0 0c-2.6788025 0 -4.8503723 -2.0799408 -4.8503723 -4.6456757z" fill-rule="evenodd"/><path fill="#000000" d="m99.7258 149.17899l9.70079 0l0 9.291336l-9.70079 0z" fill-rule="evenodd"/><path stroke="#000000" stroke-width="1.0" stroke-linejoin="round" stroke-linecap="butt" d="m99.7258 149.17899l9.70079 0l0 9.291336l-9.70079 0z" fill-rule="evenodd"/><path fill="#000000" fill-opacity="0.0" d="m314.18884 2.3981187l80.25195 0l0 27.11811l-80.25195 0z" fill-rule="evenodd"/><path fill="#000000" d="m342.81924 11.177492l-1.328125 9.140625l-1.921875 0l-1.3125 -3.828125l-0.265625 -0.921875l-0.296875 0.984375l-1.265625 3.765625l-1.875 0l-1.3125 -9.140625l1.546875 0l0.765625 6.203125l0.15625 1.390625l0.390625 -1.21875l1.328125 -4.109375l1.140625 0l1.4375 4.0625l0.40625 1.203125l0.140625 -1.28125l0.703125 -6.25l1.5625 0z" fill-rule="nonzero"/><path fill="#000000" d="m349.21716 27.318117l-5.0 0l0 -0.984375l2.046875 0l0 -5.796875l-1.90625 1.03125l-0.390625 -0.890625l2.53125 -1.328125l0.9375 0l0 6.984375l1.78125 0l0 0.984375zm6.8380737 0l-5.0 0l0 -0.984375l2.046875 0l0 -5.796875l-1.90625 1.03125l-0.390625 -0.890625l2.53125 -1.328125l0.9375 0l0 6.984375l1.78125 0l0 0.984375z" fill-rule="nonzero"/><path fill="#000000" d="m372.7158 14.427492l-7.828125 0l0 -1.328125l7.828125 0l0 1.328125zm0 3.171875l-7.828125 0l0 -1.328125l7.828125 0l0 1.328125zm20.920837 -3.234375q0 1.375 -0.28125 2.5q-0.265625 1.125 -0.828125 1.9375q-0.546875 0.796875 -1.375 1.234375q-0.8125 0.4375 -1.9375 0.4375q-0.953125 0 -1.734375 -0.359375q-0.78125 -0.359375 -1.34375 -1.09375q-0.546875 -0.75 -0.859375 -1.90625q-0.296875 -1.15625 -0.296875 -2.75q0 -1.359375 0.28125 -2.484375q0.28125 -1.140625 0.828125 -1.9375q0.546875 -0.8125 1.375 -1.25q0.84375 -0.4375 1.9375 -0.4375q0.953125 0 1.734375 0.359375q0.796875 0.359375 1.34375 1.109375q0.5625 0.75 0.859375 1.90625q0.296875 1.15625 0.296875 2.734375zm-1.59375 0.0625q0 -0.3125 -0.03125 -0.609375q-0.015625 -0.3125 -0.046875 -0.609375l-5.046875 3.75q0.140625 0.46875 0.34375 0.875q0.21875 0.390625 0.515625 0.6875q0.296875 0.28125 0.671875 0.453125q0.375 0.15625 0.859375 0.15625q0.625 0 1.125 -0.296875q0.515625 -0.3125 0.859375 -0.90625q0.359375 -0.59375 0.546875 -1.46875q0.203125 -0.875 0.203125 -2.03125zm-5.453125 -0.109375q0 0.28125 0 0.5625q0 0.28125 0.03125 0.546875l5.046875 -3.734375q-0.140625 -0.453125 -0.359375 -0.828125q-0.203125 -0.390625 -0.5 -0.671875q-0.28125 -0.28125 -0.65625 -0.4375q-0.375 -0.15625 -0.84375 -0.15625q-0.609375 0 -1.125 0.3125q-0.5 0.296875 -0.859375 0.890625q-0.359375 0.59375 -0.546875 1.484375q-0.1875 0.875 -0.1875 2.03125z" fill-rule="nonzero"/><path fill="#000000" fill-opacity="0.0" d="m319.244 234.51099l76.22049 0l0 27.118103l-76.22049 0z" fill-rule="evenodd"/><path fill="#000000" d="m343.8429 243.29036l-1.328125 9.140625l-1.921875 0l-1.3125 -3.828125l-0.265625 -0.921875l-0.296875 0.984375l-1.265625 3.765625l-1.875 0l-1.3125 -9.140625l1.546875 0l0.765625 6.203125l0.15625 1.390625l0.390625 -1.21875l1.328125 -4.109375l1.140625 0l1.4375 4.0625l0.40625 1.203125l0.140625 -1.28125l0.703125 -6.25l1.5625 0z" fill-rule="nonzero"/><path fill="#000000" d="m350.2408 259.43097l-5.0 0l0 -0.984375l2.046875 0l0 -5.7968597l-1.90625 1.03125l-0.390625 -0.890625l2.53125 -1.328125l0.9375 0l0 6.9843597l1.78125 0l0 0.984375zm7.0724792 -3.9687347q0 0.90623474 -0.1875 1.6562347q-0.171875 0.75 -0.546875 1.296875q-0.359375 0.53125 -0.921875 0.828125q-0.546875 0.296875 -1.28125 0.296875q-0.640625 0 -1.171875 -0.234375q-0.515625 -0.25 -0.890625 -0.734375q-0.359375 -0.5 -0.5625 -1.265625q-0.203125 -0.78125 -0.203125 -1.8437347q0 -0.90625 0.1875 -1.65625q0.1875 -0.75 0.546875 -1.28125q0.375 -0.546875 0.921875 -0.84375q0.5625 -0.296875 1.296875 -0.296875q0.640625 0 1.15625 0.25q0.515625 0.234375 0.890625 0.734375q0.375 0.5 0.5625 1.28125q0.203125 0.765625 0.203125 1.8125zm-1.0625 0.046875q0 -0.21875 -0.015625 -0.421875q-0.015625 -0.203125 -0.03125 -0.390625l-3.359375 2.4999847q0.09375 0.3125 0.234375 0.578125q0.140625 0.265625 0.328125 0.453125q0.203125 0.1875 0.453125 0.296875q0.25 0.109375 0.578125 0.109375q0.40625 0 0.734375 -0.203125q0.34375 -0.203125 0.578125 -0.59375q0.25 -0.390625 0.375 -0.96875q0.125 -0.59375 0.125 -1.3593597zm-3.625 -0.078125q0 0.1875 0 0.375q0 0.1875 0.015625 0.35935974l3.359375 -2.4843597q-0.09375 -0.3125 -0.234375 -0.5625q-0.140625 -0.25 -0.328125 -0.4375q-0.1875 -0.1875 -0.4375 -0.28125q-0.25 -0.109375 -0.5625 -0.109375q-0.421875 0 -0.765625 0.203125q-0.328125 0.203125 -0.5625 0.59375q-0.234375 0.390625 -0.359375 0.984375q-0.125 0.59375 -0.125 1.359375z" fill-rule="nonzero"/><path fill="#000000" d="m373.73947 246.54036l-7.828125 0l0 -1.328125l7.828125 0l0 1.328125zm0 3.171875l-7.828125 0l0 -1.328125l7.828125 0l0 1.328125zm20.920837 -3.234375q0 1.375 -0.28125 2.5q-0.265625 1.125 -0.828125 1.9375q-0.546875 0.796875 -1.375 1.234375q-0.8125 0.4375 -1.9375 0.4375q-0.953125 0 -1.734375 -0.359375q-0.78125 -0.359375 -1.34375 -1.09375q-0.546875 -0.75 -0.859375 -1.90625q-0.296875 -1.15625 -0.296875 -2.75q0 -1.359375 0.28125 -2.484375q0.28125 -1.140625 0.828125 -1.9375q0.546875 -0.8125 1.375 -1.25q0.84375 -0.4375 1.9375 -0.4375q0.953125 0 1.734375 0.359375q0.796875 0.359375 1.34375 1.109375q0.5625 0.75 0.859375 1.90625q0.296875 1.15625 0.296875 2.734375zm-1.59375 0.0625q0 -0.3125 -0.03125 -0.609375q-0.015625 -0.3125 -0.046875 -0.609375l-5.046875 3.75q0.140625 0.46875 0.34375 0.875q0.21875 0.390625 0.515625 0.6875q0.296875 0.28125 0.671875 0.453125q0.375 0.15625 0.859375 0.15625q0.625 0 1.125 -0.296875q0.515625 -0.3125 0.859375 -0.90625q0.359375 -0.59375 0.546875 -1.46875q0.203125 -0.875 0.203125 -2.03125zm-5.453125 -0.109375q0 0.28125 0 0.5625q0 0.28125 0.03125 0.546875l5.046875 -3.734375q-0.140625 -0.453125 -0.359375 -0.828125q-0.203125 -0.390625 -0.5 -0.671875q-0.28125 -0.28125 -0.65625 -0.4375q-0.375 -0.15625 -0.84375 -0.15625q-0.609375 0 -1.125 0.3125q-0.5 0.296875 -0.859375 0.890625q-0.359375 0.59375 -0.546875 1.484375q-0.1875 0.875 -0.1875 2.03125z" fill-rule="nonzero"/><path fill="#000000" fill-opacity="0.0" d="m6.9427896 235.72104l140.7874 0l0 27.118103l-140.7874 0z" fill-rule="evenodd"/><path fill="#000000" d="m16.864664 244.50041l-1.328124 9.140625l-1.921875 0l-1.3125 -3.828125l-0.265625 -0.921875l-0.296875 0.984375l-1.265625 3.765625l-1.875 0l-1.3125005 -9.140625l1.5468755 0l0.765625 6.203125l0.15625 1.390625l0.390625 -1.21875l1.328125 -4.109375l1.140625 0l1.4375 4.0625l0.40625 1.203125l0.140625 -1.28125l0.703125 -6.25l1.562499 0z" fill-rule="nonzero"/><path fill="#000000" d="m23.496958 256.67227q0 0.90625 -0.1875 1.65625q-0.171875 0.75 -0.546875 1.296875q-0.359375 0.53125 -0.921875 0.828125q-0.546875 0.296875 -1.28125 0.296875q-0.640625 0 -1.171875 -0.234375q-0.515625 -0.25 -0.890625 -0.734375q-0.359375 -0.5 -0.5625 -1.265625q-0.203125 -0.78125 -0.203125 -1.84375q0 -0.90623474 0.1875 -1.6562347q0.1875 -0.75 0.546875 -1.28125q0.375 -0.546875 0.921875 -0.84375q0.5625 -0.296875 1.296875 -0.296875q0.640625 0 1.15625 0.25q0.515625 0.234375 0.890625 0.734375q0.375 0.5 0.5625 1.28125q0.203125 0.765625 0.203125 1.8124847zm-1.0625 0.046875q0 -0.21875 -0.015625 -0.421875q-0.015625 -0.203125 -0.03125 -0.39060974l-3.359375 2.4999847q0.09375 0.3125 0.234375 0.578125q0.140625 0.265625 0.328125 0.453125q0.203125 0.1875 0.453125 0.296875q0.25 0.109375 0.578125 0.109375q0.40625 0 0.734375 -0.203125q0.34375 -0.203125 0.578125 -0.59375q0.25 -0.390625 0.375 -0.96875q0.125 -0.59375 0.125 -1.359375zm-3.625 -0.078125q0 0.1875 0 0.375q0 0.1875 0.015625 0.359375l3.359375 -2.4843597q-0.09375 -0.3125 -0.234375 -0.5625q-0.140625 -0.25 -0.328125 -0.4375q-0.1875 -0.1875 -0.4375 -0.28125q-0.25 -0.109375 -0.5625 -0.109375q-0.421875 0 -0.765625 0.203125q-0.328125 0.203125 -0.5625 0.59375q-0.234375 0.390625 -0.359375 0.984375q-0.125 0.59375 -0.125 1.3593597zm11.525589 0.03125q0 0.90625 -0.1875 1.65625q-0.171875 0.75 -0.546875 1.296875q-0.359375 0.53125 -0.921875 0.828125q-0.546875 0.296875 -1.28125 0.296875q-0.640625 0 -1.171875 -0.234375q-0.515625 -0.25 -0.890625 -0.734375q-0.359375 -0.5 -0.5625 -1.265625q-0.203125 -0.78125 -0.203125 -1.84375q0 -0.90623474 0.1875 -1.6562347q0.1875 -0.75 0.546875 -1.28125q0.375 -0.546875 0.921875 -0.84375q0.5625 -0.296875 1.296875 -0.296875q0.640625 0 1.15625 0.25q0.515625 0.234375 0.890625 0.734375q0.375 0.5 0.5625 1.28125q0.203125 0.765625 0.203125 1.8124847zm-1.0625 0.046875q0 -0.21875 -0.015625 -0.421875q-0.015625 -0.203125 -0.03125 -0.39060974l-3.359375 2.4999847q0.09375 0.3125 0.234375 0.578125q0.140625 0.265625 0.328125 0.453125q0.203125 0.1875 0.453125 0.296875q0.25 0.109375 0.578125 0.109375q0.40625 0 0.734375 -0.203125q0.34375 -0.203125 0.578125 -0.59375q0.25 -0.390625 0.375 -0.96875q0.125 -0.59375 0.125 -1.359375zm-3.625 -0.078125q0 0.1875 0 0.375q0 0.1875 0.015625 0.359375l3.359375 -2.4843597q-0.09375 -0.3125 -0.234375 -0.5625q-0.140625 -0.25 -0.328125 -0.4375q-0.1875 -0.1875 -0.4375 -0.28125q-0.25 -0.109375 -0.5625 -0.109375q-0.421875 0 -0.765625 0.203125q-0.328125 0.203125 -0.5625 0.59375q-0.234375 0.390625 -0.359375 0.984375q-0.125 0.59375 -0.125 1.3593597z" fill-rule="nonzero"/><path fill="#000000" d="m46.761227 247.75041l-7.828125 0l0 -1.328125l7.828125 0l0 1.328125zm0 3.171875l-7.828125 0l0 -1.328125l7.828125 0l0 1.328125zm20.545834 2.71875l-7.468746 0l0 -1.46875l3.0625 0l0 -8.703125l-2.859375 1.546875l-0.578125 -1.34375l3.78125 -1.984375l1.4062462 0l0 10.484375l2.65625 0l0 1.46875z" fill-rule="nonzero"/><path fill="#000000" fill-opacity="0.0" d="m362.98022 195.40912l27.307098 0l0 27.118103l-27.307098 0z" fill-rule="evenodd"/><path fill="#000000" d="m371.0271 205.46974q0.25 0.328125 0.390625 0.75q0.140625 0.421875 0.140625 0.921875q0 0.703125 -0.265625 1.296875q-0.25 0.578125 -0.734375 1.0q-0.46875 0.421875 -1.125 0.65625q-0.65625 0.234375 -1.453125 0.234375q-0.578125 0 -1.078125 -0.125q-0.5 -0.125 -0.78125 -0.3125q-0.1875 0.265625 -0.3125 0.5q-0.109375 0.21875 -0.109375 0.5q0 0.34375 0.328125 0.578125q0.34375 0.21875 0.890625 0.234375l2.40625 0.09375q0.671875 0.015625 1.25 0.171875q0.59375 0.15625 1.0 0.453125q0.421875 0.28125 0.640625 0.71875q0.234375 0.421875 0.234375 0.984375q0 0.609375 -0.265625 1.15625q-0.25 0.546875 -0.8125 0.953125q-0.546875 0.421875 -1.390625 0.671875q-0.84375 0.25 -2.015625 0.25q-1.109375 0 -1.890625 -0.1875q-0.78125 -0.171875 -1.28125 -0.484375q-0.5 -0.3125 -0.734375 -0.75q-0.21875 -0.421875 -0.21875 -0.953125q0 -0.65625 0.296875 -1.15625q0.3125 -0.5 0.96875 -0.96875q-0.234375 -0.109375 -0.40625 -0.265625q-0.171875 -0.171875 -0.28125 -0.359375q-0.109375 -0.203125 -0.171875 -0.421875q-0.046875 -0.21875 -0.046875 -0.4375q0 -0.578125 0.265625 -1.0625q0.28125 -0.5 0.671875 -0.9375q-0.171875 -0.21875 -0.3125 -0.40625q-0.125 -0.203125 -0.234375 -0.4375q-0.09375 -0.234375 -0.140625 -0.5q-0.046875 -0.28125 -0.046875 -0.625q0 -0.703125 0.25 -1.28125q0.265625 -0.59375 0.734375 -1.015625q0.46875 -0.421875 1.125 -0.65625q0.671875 -0.234375 1.46875 -0.234375q0.34375 0 0.640625 0.046875q0.3125 0.046875 0.546875 0.125l3.328125 0l0 1.28125l-1.46875 0zm-5.5 9.1875q0 0.640625 0.671875 0.9375q0.671875 0.296875 1.875 0.296875q0.75 0 1.265625 -0.140625q0.515625 -0.140625 0.828125 -0.359375q0.3125 -0.21875 0.453125 -0.515625q0.140625 -0.28125 0.140625 -0.578125q0 -0.5625 -0.453125 -0.828125q-0.453125 -0.265625 -1.390625 -0.296875l-2.390625 -0.09375q-0.296875 0.203125 -0.5 0.390625q-0.203125 0.203125 -0.3125 0.390625q-0.109375 0.203125 -0.15625 0.390625q-0.03125 0.203125 -0.03125 0.40625zm0.484375 -7.484375q0 0.4375 0.140625 0.8125q0.140625 0.359375 0.40625 0.609375q0.265625 0.25 0.625 0.390625q0.359375 0.140625 0.796875 0.140625q0.46875 0 0.84375 -0.15625q0.375 -0.15625 0.625 -0.421875q0.25 -0.28125 0.375 -0.640625q0.140625 -0.359375 0.140625 -0.734375q0 -0.4375 -0.15625 -0.796875q-0.140625 -0.375 -0.40625 -0.625q-0.265625 -0.25 -0.625 -0.390625q-0.359375 -0.140625 -0.796875 -0.140625q-0.46875 0 -0.84375 0.171875q-0.359375 0.15625 -0.625 0.421875q-0.25 0.265625 -0.375 0.625q-0.125 0.34375 -0.125 0.734375z" fill-rule="nonzero"/><path fill="#000000" d="m379.30002 220.32912l-5.0 0l0 -0.984375l2.046875 0l0 -5.796875l-1.90625 1.03125l-0.390625 -0.890625l2.53125 -1.328125l0.9375 0l0 6.984375l1.78125 0l0 0.984375zm7.0724792 -3.96875q0 0.90625 -0.1875 1.65625q-0.171875 0.75 -0.546875 1.296875q-0.359375 0.53125 -0.921875 0.828125q-0.546875 0.296875 -1.28125 0.296875q-0.640625 0 -1.171875 -0.234375q-0.515625 -0.25 -0.890625 -0.734375q-0.359375 -0.5 -0.5625 -1.265625q-0.203125 -0.78125 -0.203125 -1.84375q0 -0.90625 0.1875 -1.65625q0.1875 -0.75 0.546875 -1.28125q0.375 -0.546875 0.921875 -0.84375q0.5625 -0.296875 1.296875 -0.296875q0.640625 0 1.15625 0.25q0.515625 0.234375 0.890625 0.734375q0.375 0.5 0.5625 1.28125q0.203125 0.765625 0.203125 1.8125zm-1.0625 0.046875q0 -0.21875 -0.015625 -0.421875q-0.015625 -0.203125 -0.03125 -0.390625l-3.359375 2.5q0.09375 0.3125 0.234375 0.578125q0.140625 0.265625 0.328125 0.453125q0.203125 0.1875 0.453125 0.296875q0.25 0.109375 0.578125 0.109375q0.40625 0 0.734375 -0.203125q0.34375 -0.203125 0.578125 -0.59375q0.25 -0.390625 0.375 -0.96875q0.125 -0.59375 0.125 -1.359375zm-3.625 -0.078125q0 0.1875 0 0.375q0 0.1875 0.015625 0.359375l3.359375 -2.484375q-0.09375 -0.3125 -0.234375 -0.5625q-0.140625 -0.25 -0.328125 -0.4375q-0.1875 -0.1875 -0.4375 -0.28125q-0.25 -0.109375 -0.5625 -0.109375q-0.421875 0 -0.765625 0.203125q-0.328125 0.203125 -0.5625 0.59375q-0.234375 0.390625 -0.359375 0.984375q-0.125 0.59375 -0.125 1.359375z" fill-rule="nonzero"/><path fill="#000000" fill-opacity="0.0" d="m362.98022 46.79576l27.307098 0l0 27.11811l-27.307098 0z" fill-rule="evenodd"/><path fill="#000000" d="m371.0271 56.856384q0.25 0.328125 0.390625 0.75q0.140625 0.421875 0.140625 0.921875q0 0.703125 -0.265625 1.296875q-0.25 0.578125 -0.734375 1.0q-0.46875 0.421875 -1.125 0.65625q-0.65625 0.234375 -1.453125 0.234375q-0.578125 0 -1.078125 -0.125q-0.5 -0.125 -0.78125 -0.3125q-0.1875 0.265625 -0.3125 0.5q-0.109375 0.21875 -0.109375 0.5q0 0.34375 0.328125 0.578125q0.34375 0.21875 0.890625 0.234375l2.40625 0.09375q0.671875 0.015625 1.25 0.171875q0.59375 0.15625 1.0 0.453125q0.421875 0.28125 0.640625 0.71875q0.234375 0.421875 0.234375 0.984375q0 0.609375 -0.265625 1.15625q-0.25 0.546875 -0.8125 0.953125q-0.546875 0.421875 -1.390625 0.671875q-0.84375 0.25 -2.015625 0.25q-1.109375 0 -1.890625 -0.1875q-0.78125 -0.171875 -1.28125 -0.484375q-0.5 -0.3125 -0.734375 -0.75q-0.21875 -0.421875 -0.21875 -0.953125q0 -0.65625 0.296875 -1.15625q0.3125 -0.5 0.96875 -0.96875q-0.234375 -0.109375 -0.40625 -0.265625q-0.171875 -0.171875 -0.28125 -0.359375q-0.109375 -0.203125 -0.171875 -0.421875q-0.046875 -0.21875 -0.046875 -0.4375q0 -0.578125 0.265625 -1.0625q0.28125 -0.5 0.671875 -0.9375q-0.171875 -0.21875 -0.3125 -0.40625q-0.125 -0.203125 -0.234375 -0.4375q-0.09375 -0.234375 -0.140625 -0.5q-0.046875 -0.28125 -0.046875 -0.625q0 -0.703125 0.25 -1.28125q0.265625 -0.59375 0.734375 -1.015625q0.46875 -0.421875 1.125 -0.65625q0.671875 -0.234375 1.46875 -0.234375q0.34375 0 0.640625 0.046875q0.3125 0.046875 0.546875 0.125l3.328125 0l0 1.28125l-1.46875 0zm-5.5 9.1875q0 0.640625 0.671875 0.9375q0.671875 0.296875 1.875 0.296875q0.75 0 1.265625 -0.140625q0.515625 -0.140625 0.828125 -0.359375q0.3125 -0.21875 0.453125 -0.515625q0.140625 -0.28125 0.140625 -0.578125q0 -0.5625 -0.453125 -0.828125q-0.453125 -0.265625 -1.390625 -0.296875l-2.390625 -0.09375q-0.296875 0.203125 -0.5 0.390625q-0.203125 0.203125 -0.3125 0.390625q-0.109375 0.203125 -0.15625 0.390625q-0.03125 0.203125 -0.03125 0.40625zm0.484375 -7.484375q0 0.4375 0.140625 0.8125q0.140625 0.359375 0.40625 0.609375q0.265625 0.25 0.625 0.390625q0.359375 0.140625 0.796875 0.140625q0.46875 0 0.84375 -0.15625q0.375 -0.15625 0.625 -0.421875q0.25 -0.28125 0.375 -0.640625q0.140625 -0.359375 0.140625 -0.734375q0 -0.4375 -0.15625 -0.796875q-0.140625 -0.375 -0.40625 -0.625q-0.265625 -0.25 -0.625 -0.390625q-0.359375 -0.140625 -0.796875 -0.140625q-0.46875 0 -0.84375 0.171875q-0.359375 0.15625 -0.625 0.421875q-0.25 0.265625 -0.375 0.625q-0.125 0.34375 -0.125 0.734375z" fill-rule="nonzero"/><path fill="#000000" d="m379.30002 71.71576l-5.0 0l0 -0.984375l2.046875 0l0 -5.796875l-1.90625 1.03125l-0.390625 -0.890625l2.53125 -1.328125l0.9375 0l0 6.984375l1.78125 0l0 0.984375zm6.8381042 0l-5.0 0l0 -0.984375l2.046875 0l0 -5.796875l-1.90625 1.03125l-0.390625 -0.890625l2.53125 -1.328125l0.9375 0l0 6.984375l1.78125 0l0 0.984375z" fill-rule="nonzero"/><path fill="#000000" fill-opacity="0.0" d="m11.729291 195.40912l27.307087 0l0 27.118103l-27.307087 0z" fill-rule="evenodd"/><path fill="#000000" d="m19.776165 205.46974q0.25 0.328125 0.390625 0.75q0.140625 0.421875 0.140625 0.921875q0 0.703125 -0.265625 1.296875q-0.25 0.578125 -0.734375 1.0q-0.46875 0.421875 -1.125 0.65625q-0.65625 0.234375 -1.453125 0.234375q-0.578125 0 -1.078124 -0.125q-0.5 -0.125 -0.78125 -0.3125q-0.1875 0.265625 -0.3125 0.5q-0.109375 0.21875 -0.109375 0.5q0 0.34375 0.328125 0.578125q0.34375 0.21875 0.890625 0.234375l2.406249 0.09375q0.671875 0.015625 1.25 0.171875q0.59375 0.15625 1.0 0.453125q0.421875 0.28125 0.640625 0.71875q0.234375 0.421875 0.234375 0.984375q0 0.609375 -0.265625 1.15625q-0.25 0.546875 -0.8125 0.953125q-0.546875 0.421875 -1.390625 0.671875q-0.84375 0.25 -2.015625 0.25q-1.109374 0 -1.890624 -0.1875q-0.78125 -0.171875 -1.28125 -0.484375q-0.5 -0.3125 -0.734375 -0.75q-0.21875 -0.421875 -0.21875 -0.953125q0 -0.65625 0.296875 -1.15625q0.3125 -0.5 0.96875 -0.96875q-0.234375 -0.109375 -0.40625 -0.265625q-0.171875 -0.171875 -0.28125 -0.359375q-0.109375 -0.203125 -0.171875 -0.421875q-0.046875 -0.21875 -0.046875 -0.4375q0 -0.578125 0.265625 -1.0625q0.28125 -0.5 0.671875 -0.9375q-0.171875 -0.21875 -0.3125 -0.40625q-0.125 -0.203125 -0.234375 -0.4375q-0.09375 -0.234375 -0.140625 -0.5q-0.046875 -0.28125 -0.046875 -0.625q0 -0.703125 0.25 -1.28125q0.265625 -0.59375 0.734375 -1.015625q0.46875 -0.421875 1.125 -0.65625q0.671875 -0.234375 1.468749 -0.234375q0.34375 0 0.640625 0.046875q0.3125 0.046875 0.546875 0.125l3.328125 0l0 1.28125l-1.46875 0zm-5.499999 9.1875q0 0.640625 0.671875 0.9375q0.671875 0.296875 1.874999 0.296875q0.75 0 1.265625 -0.140625q0.515625 -0.140625 0.828125 -0.359375q0.3125 -0.21875 0.453125 -0.515625q0.140625 -0.28125 0.140625 -0.578125q0 -0.5625 -0.453125 -0.828125q-0.453125 -0.265625 -1.390625 -0.296875l-2.390624 -0.09375q-0.296875 0.203125 -0.5 0.390625q-0.203125 0.203125 -0.3125 0.390625q-0.109375 0.203125 -0.15625 0.390625q-0.03125 0.203125 -0.03125 0.40625zm0.484375 -7.484375q0 0.4375 0.140625 0.8125q0.140625 0.359375 0.40625 0.609375q0.265625 0.25 0.625 0.390625q0.35937405 0.140625 0.79687405 0.140625q0.46875 0 0.84375 -0.15625q0.375 -0.15625 0.625 -0.421875q0.25 -0.28125 0.375 -0.640625q0.140625 -0.359375 0.140625 -0.734375q0 -0.4375 -0.15625 -0.796875q-0.140625 -0.375 -0.40625 -0.625q-0.265625 -0.25 -0.625 -0.390625q-0.359375 -0.140625 -0.796875 -0.140625q-0.46875 0 -0.84374905 0.171875q-0.359375 0.15625 -0.625 0.421875q-0.25 0.265625 -0.375 0.625q-0.125 0.34375 -0.125 0.734375z" fill-rule="nonzero"/><path fill="#000000" d="m28.283459 216.36037q0 0.90625 -0.1875 1.65625q-0.171875 0.75 -0.546875 1.296875q-0.359375 0.53125 -0.921875 0.828125q-0.546875 0.296875 -1.28125 0.296875q-0.640625 0 -1.171875 -0.234375q-0.515625 -0.25 -0.890625 -0.734375q-0.359375 -0.5 -0.5625 -1.265625q-0.203125 -0.78125 -0.203125 -1.84375q0 -0.90625 0.1875 -1.65625q0.1875 -0.75 0.546875 -1.28125q0.375 -0.546875 0.921875 -0.84375q0.5625 -0.296875 1.296875 -0.296875q0.640625 0 1.15625 0.25q0.515625 0.234375 0.890625 0.734375q0.375 0.5 0.5625 1.28125q0.203125 0.765625 0.203125 1.8125zm-1.0625 0.046875q0 -0.21875 -0.015625 -0.421875q-0.015625 -0.203125 -0.03125 -0.390625l-3.359375 2.5q0.09375 0.3125 0.234375 0.578125q0.140625 0.265625 0.328125 0.453125q0.203125 0.1875 0.453125 0.296875q0.25 0.109375 0.578125 0.109375q0.40625 0 0.734375 -0.203125q0.34375 -0.203125 0.578125 -0.59375q0.25 -0.390625 0.375 -0.96875q0.125 -0.59375 0.125 -1.359375zm-3.625 -0.078125q0 0.1875 0 0.375q0 0.1875 0.015625 0.359375l3.359375 -2.484375q-0.09375 -0.3125 -0.234375 -0.5625q-0.140625 -0.25 -0.328125 -0.4375q-0.1875 -0.1875 -0.4375 -0.28125q-0.25 -0.109375 -0.5625 -0.109375q-0.421875 0 -0.765625 0.203125q-0.328125 0.203125 -0.5625 0.59375q-0.234375 0.390625 -0.359375 0.984375q-0.125 0.59375 -0.125 1.359375zm11.525589 0.03125q0 0.90625 -0.1875 1.65625q-0.171875 0.75 -0.546875 1.296875q-0.359375 0.53125 -0.921875 0.828125q-0.546875 0.296875 -1.28125 0.296875q-0.640625 0 -1.171875 -0.234375q-0.515625 -0.25 -0.890625 -0.734375q-0.359375 -0.5 -0.5625 -1.265625q-0.203125 -0.78125 -0.203125 -1.84375q0 -0.90625 0.1875 -1.65625q0.1875 -0.75 0.546875 -1.28125q0.375 -0.546875 0.921875 -0.84375q0.5625 -0.296875 1.296875 -0.296875q0.640625 0 1.15625 0.25q0.515625 0.234375 0.890625 0.734375q0.375 0.5 0.5625 1.28125q0.203125 0.765625 0.203125 1.8125zm-1.0625 0.046875q0 -0.21875 -0.015625 -0.421875q-0.015625 -0.203125 -0.03125 -0.390625l-3.359375 2.5q0.09375 0.3125 0.234375 0.578125q0.140625 0.265625 0.328125 0.453125q0.203125 0.1875 0.453125 0.296875q0.25 0.109375 0.578125 0.109375q0.40625 0 0.734375 -0.203125q0.34375 -0.203125 0.578125 -0.59375q0.25 -0.390625 0.375 -0.96875q0.125 -0.59375 0.125 -1.359375zm-3.625 -0.078125q0 0.1875 0 0.375q0 0.1875 0.015625 0.359375l3.359375 -2.484375q-0.09375 -0.3125 -0.234375 -0.5625q-0.140625 -0.25 -0.328125 -0.4375q-0.1875 -0.1875 -0.4375 -0.28125q-0.25 -0.109375 -0.5625 -0.109375q-0.421875 0 -0.765625 0.203125q-0.328125 0.203125 -0.5625 0.59375q-0.234375 0.390625 -0.359375 0.984375q-0.125 0.59375 -0.125 1.359375z" fill-rule="nonzero"/><path fill="#000000" fill-opacity="0.0" d="m11.729291 46.79576l27.307087 0l0 27.11811l-27.307087 0z" fill-rule="evenodd"/><path fill="#000000" d="m19.776165 56.856384q0.25 0.328125 0.390625 0.75q0.140625 0.421875 0.140625 0.921875q0 0.703125 -0.265625 1.296875q-0.25 0.578125 -0.734375 1.0q-0.46875 0.421875 -1.125 0.65625q-0.65625 0.234375 -1.453125 0.234375q-0.578125 0 -1.078124 -0.125q-0.5 -0.125 -0.78125 -0.3125q-0.1875 0.265625 -0.3125 0.5q-0.109375 0.21875 -0.109375 0.5q0 0.34375 0.328125 0.578125q0.34375 0.21875 0.890625 0.234375l2.406249 0.09375q0.671875 0.015625 1.25 0.171875q0.59375 0.15625 1.0 0.453125q0.421875 0.28125 0.640625 0.71875q0.234375 0.421875 0.234375 0.984375q0 0.609375 -0.265625 1.15625q-0.25 0.546875 -0.8125 0.953125q-0.546875 0.421875 -1.390625 0.671875q-0.84375 0.25 -2.015625 0.25q-1.109374 0 -1.890624 -0.1875q-0.78125 -0.171875 -1.28125 -0.484375q-0.5 -0.3125 -0.734375 -0.75q-0.21875 -0.421875 -0.21875 -0.953125q0 -0.65625 0.296875 -1.15625q0.3125 -0.5 0.96875 -0.96875q-0.234375 -0.109375 -0.40625 -0.265625q-0.171875 -0.171875 -0.28125 -0.359375q-0.109375 -0.203125 -0.171875 -0.421875q-0.046875 -0.21875 -0.046875 -0.4375q0 -0.578125 0.265625 -1.0625q0.28125 -0.5 0.671875 -0.9375q-0.171875 -0.21875 -0.3125 -0.40625q-0.125 -0.203125 -0.234375 -0.4375q-0.09375 -0.234375 -0.140625 -0.5q-0.046875 -0.28125 -0.046875 -0.625q0 -0.703125 0.25 -1.28125q0.265625 -0.59375 0.734375 -1.015625q0.46875 -0.421875 1.125 -0.65625q0.671875 -0.234375 1.468749 -0.234375q0.34375 0 0.640625 0.046875q0.3125 0.046875 0.546875 0.125l3.328125 0l0 1.28125l-1.46875 0zm-5.499999 9.1875q0 0.640625 0.671875 0.9375q0.671875 0.296875 1.874999 0.296875q0.75 0 1.265625 -0.140625q0.515625 -0.140625 0.828125 -0.359375q0.3125 -0.21875 0.453125 -0.515625q0.140625 -0.28125 0.140625 -0.578125q0 -0.5625 -0.453125 -0.828125q-0.453125 -0.265625 -1.390625 -0.296875l-2.390624 -0.09375q-0.296875 0.203125 -0.5 0.390625q-0.203125 0.203125 -0.3125 0.390625q-0.109375 0.203125 -0.15625 0.390625q-0.03125 0.203125 -0.03125 0.40625zm0.484375 -7.484375q0 0.4375 0.140625 0.8125q0.140625 0.359375 0.40625 0.609375q0.265625 0.25 0.625 0.390625q0.35937405 0.140625 0.79687405 0.140625q0.46875 0 0.84375 -0.15625q0.375 -0.15625 0.625 -0.421875q0.25 -0.28125 0.375 -0.640625q0.140625 -0.359375 0.140625 -0.734375q0 -0.4375 -0.15625 -0.796875q-0.140625 -0.375 -0.40625 -0.625q-0.265625 -0.25 -0.625 -0.390625q-0.359375 -0.140625 -0.796875 -0.140625q-0.46875 0 -0.84374905 0.171875q-0.359375 0.15625 -0.625 0.421875q-0.25 0.265625 -0.375 0.625q-0.125 0.34375 -0.125 0.734375z" fill-rule="nonzero"/><path fill="#000000" d="m28.283459 67.74701q0 0.90625 -0.1875 1.65625q-0.171875 0.75 -0.546875 1.296875q-0.359375 0.53125 -0.921875 0.828125q-0.546875 0.296875 -1.28125 0.296875q-0.640625 0 -1.171875 -0.234375q-0.515625 -0.25 -0.890625 -0.734375q-0.359375 -0.5 -0.5625 -1.265625q-0.203125 -0.78125 -0.203125 -1.84375q0 -0.90625 0.1875 -1.65625q0.1875 -0.75 0.546875 -1.28125q0.375 -0.546875 0.921875 -0.84375q0.5625 -0.296875 1.296875 -0.296875q0.640625 0 1.15625 0.25q0.515625 0.234375 0.890625 0.734375q0.375 0.5 0.5625 1.28125q0.203125 0.765625 0.203125 1.8125zm-1.0625 0.046875q0 -0.21875 -0.015625 -0.421875q-0.015625 -0.203125 -0.03125 -0.390625l-3.359375 2.5q0.09375 0.3125 0.234375 0.578125q0.140625 0.265625 0.328125 0.453125q0.203125 0.1875 0.453125 0.296875q0.25 0.109375 0.578125 0.109375q0.40625 0 0.734375 -0.203125q0.34375 -0.203125 0.578125 -0.59375q0.25 -0.390625 0.375 -0.96875q0.125 -0.59375 0.125 -1.359375zm-3.625 -0.078125q0 0.1875 0 0.375q0 0.1875 0.015625 0.359375l3.359375 -2.484375q-0.09375 -0.3125 -0.234375 -0.5625q-0.140625 -0.25 -0.328125 -0.4375q-0.1875 -0.1875 -0.4375 -0.28125q-0.25 -0.109375 -0.5625 -0.109375q-0.421875 0 -0.765625 0.203125q-0.328125 0.203125 -0.5625 0.59375q-0.234375 0.390625 -0.359375 0.984375q-0.125 0.59375 -0.125 1.359375zm11.291214 4.0l-5.0 0l0 -0.984375l2.046875 0l0 -5.796875l-1.90625 1.03125l-0.390625 -0.890625l2.53125 -1.328125l0.9375 0l0 6.984375l1.78125 0l0 0.984375z" fill-rule="nonzero"/><path fill="#000000" fill-opacity="0.0" d="m111.82701 125.35369l27.307083 0l0 21.637794l-27.307083 0z" fill-rule="evenodd"/><path fill="#000000" d="m121.530136 143.27368l-2.109375 0l-2.46875 -3.484375l-2.4375 3.484375l-2.046875 0l3.546875 -4.59375l-3.390625 -4.546875l2.03125 0l2.40625 3.515625l2.359375 -3.515625l1.96875 0l-3.4375 4.578125l3.578125 4.5625z" fill-rule="nonzero"/><path fill="#000000" fill-opacity="0.0" d="m6.7083488 154.78972l388.75592 -0.47242737" fill-rule="evenodd"/><path stroke="#000000" stroke-width="1.0" stroke-linejoin="round" stroke-linecap="butt" d="m6.7083488 154.78972l388.75592 -0.47242737" fill-rule="evenodd"/><path fill="#cfe2f3" d="m538.2046 42.257896l291.18115 0l0 113.25985l-291.18115 0z" fill-rule="evenodd"/><path fill="#000000" d="m681.33594 104.57344l0 4.9375l-1.625 0l0 -12.875q0 -1.53125 0.40625 -2.390625q0.421875 -0.875 1.421875 -1.4375q1.015625 -0.578125 2.25 -0.578125q1.84375 0 2.78125 1.046875q0.9375 1.046875 0.9375 2.296875q0 1.21875 -0.765625 1.96875q-0.75 0.75 -1.734375 0.921875q1.578125 0.15625 2.4375 1.140625q0.875 0.984375 0.875 2.421875q0 1.546875 -1.015625 2.78125q-1.015625 1.21875 -2.9375 1.21875q-1.96875 0 -3.03125 -1.453125zm1.453125 -6.640625q1.671875 0 2.4375 -0.578125q0.765625 -0.578125 0.765625 -1.6875q0 -0.890625 -0.65625 -1.484375q-0.640625 -0.609375 -1.625 -0.609375q-0.84375 0 -1.46875 0.453125q-0.625 0.4375 -0.765625 0.984375q-0.140625 0.546875 -0.140625 1.921875l0 3.671875q0 1.5625 0.21875 2.296875q0.21875 0.734375 0.9375 1.328125q0.71875 0.59375 1.65625 0.59375q1.140625 0 1.796875 -0.78125q0.671875 -0.78125 0.671875 -1.921875q0 -0.953125 -0.5 -1.703125q-0.484375 -0.75 -1.203125 -1.015625q-0.703125 -0.265625 -1.890625 -0.265625l-0.234375 0l0 -1.203125z" fill-rule="nonzero"/><path fill="#fff2cc" d="m538.2046 155.49667l290.29926 0l0 72.62993l-290.29926 0z" fill-rule="evenodd"/><path fill="#000000" d="m679.7399 185.37227l7.296875 0l0 1.328125l-5.09375 0q0.90625 0.9375 2.84375 2.28125q1.734375 1.203125 2.421875 2.234375q0.6875 1.015625 0.6875 2.78125q0 2.359375 -1.28125 3.65625q-1.265625 1.296875 -3.3125 1.296875q-2.21875 0 -3.359375 -1.453125q-1.125 -1.46875 -1.125 -3.46875q0 -2.328125 1.1875 -3.546875q1.203125 -1.234375 2.859375 -1.296875q-0.84375 -0.59375 -3.125 -2.625l0 -1.1875zm0.75 8.671875q0 1.546875 0.8125 2.5625q0.828125 1.0 2.09375 1.0q1.109375 0 1.953125 -0.859375q0.859375 -0.859375 0.859375 -2.703125q0 -1.71875 -0.8125 -2.65625q-0.8125 -0.9375 -2.046875 -0.9375q-1.359375 0 -2.109375 1.0625q-0.75 1.046875 -0.75 2.53125z" fill-rule="nonzero"/><path fill="#d9ead3" d="m441.14017 42.257896l97.07083 0l0 113.25985l-97.07083 0z" fill-rule="evenodd"/><path fill="#000000" d="m492.68903 96.13594l1.671875 0q-0.625 2.0 -1.171875 4.828125q0.640625 3.515625 1.171875 4.84375l-1.625 0q-0.390625 -0.90625 -0.59375 -1.765625q-0.75 1.984375 -3.15625 1.984375q-1.828125 0 -2.9375 -1.359375q-1.109375 -1.375 -1.109375 -3.71875q0 -2.40625 1.109375 -3.71875q1.125 -1.3125 2.96875 -1.3125q1.125 0 1.84375 0.46875q0.734375 0.453125 1.34375 1.390625q0.0625 -0.328125 0.484375 -1.640625zm-3.40625 1.140625q-1.171875 0 -1.859375 0.953125q-0.6875 0.9375 -0.6875 2.71875q0 1.75 0.640625 2.75q0.65625 0.984375 1.8125 0.984375q1.140625 0 1.890625 -0.984375q0.75 -0.984375 0.75 -2.8125q0 -1.796875 -0.703125 -2.703125q-0.703125 -0.90625 -1.84375 -0.90625z" fill-rule="nonzero"/><path fill="#e6b8af" d="m441.14017 155.49667l97.07083 0l0 72.62993l-97.07083 0z" fill-rule="evenodd"/><path fill="#000000" d="m485.2459 189.05977l1.71875 0l2.703125 7.625l2.765625 -7.625l1.671875 0l-3.609375 9.671875l0 3.703125l-1.671875 0l0 -3.703125l-3.578125 -9.671875z" fill-rule="nonzero"/><path fill="#000000" fill-opacity="0.0" d="m441.03134 41.941235l388.25198 0l0 185.88976l-388.25198 0z" fill-rule="evenodd"/><path stroke="#000000" stroke-width="1.0" stroke-linejoin="round" stroke-linecap="butt" d="m441.03134 41.941235l388.25198 0l0 185.88976l-388.25198 0z" fill-rule="evenodd"/><path fill="#000000" fill-opacity="0.0" d="m539.0963 42.257896l-0.881897 185.88977" fill-rule="evenodd"/><path stroke="#000000" stroke-width="1.0" stroke-linejoin="round" stroke-linecap="butt" d="m539.0963 42.257896l-0.881897 185.88977" fill-rule="evenodd"/><path fill="#000000" fill-opacity="0.0" d="m440.63208 3.5316207l87.18109 0l0 27.11811l-87.18109 0z" fill-rule="evenodd"/><path fill="#000000" d="m450.55396 12.310994l-1.328125 9.140624l-1.921875 0l-1.3125 -3.828125l-0.265625 -0.921875l-0.296875 0.984375l-1.265625 3.765625l-1.875 0l-1.3125 -9.140624l1.546875 0l0.765625 6.203124l0.15625 1.390625l0.390625 -1.21875l1.328125 -4.109374l1.140625 0l1.4375 4.062499l0.40625 1.203125l0.140625 -1.28125l0.703125 -6.249999l1.5625 0z" fill-rule="nonzero"/><path fill="#000000" d="m457.18625 24.482868q0 0.90625 -0.1875 1.65625q-0.171875 0.75 -0.546875 1.296875q-0.359375 0.53125 -0.921875 0.828125q-0.546875 0.296875 -1.28125 0.296875q-0.640625 0 -1.171875 -0.234375q-0.515625 -0.25 -0.890625 -0.734375q-0.359375 -0.5 -0.5625 -1.265625q-0.203125 -0.78125 -0.203125 -1.84375q0 -0.90625 0.1875 -1.65625q0.1875 -0.75 0.546875 -1.28125q0.375 -0.546875 0.921875 -0.84375q0.5625 -0.296875 1.296875 -0.296875q0.640625 0 1.15625 0.25q0.515625 0.234375 0.890625 0.734375q0.375 0.5 0.5625 1.28125q0.203125 0.765625 0.203125 1.8125zm-1.0625 0.046875q0 -0.21875 -0.015625 -0.421875q-0.015625 -0.203125 -0.03125 -0.390625l-3.359375 2.5q0.09375 0.3125 0.234375 0.578125q0.140625 0.265625 0.328125 0.453125q0.203125 0.1875 0.453125 0.296875q0.25 0.109375 0.578125 0.109375q0.40625 0 0.734375 -0.203125q0.34375 -0.203125 0.578125 -0.59375q0.25 -0.390625 0.375 -0.96875q0.125 -0.59375 0.125 -1.359375zm-3.625 -0.078125q0 0.1875 0 0.375q0 0.1875 0.015625 0.359375l3.359375 -2.484375q-0.09375 -0.3125 -0.234375 -0.5625q-0.140625 -0.25 -0.328125 -0.4375q-0.1875 -0.1875 -0.4375 -0.28125q-0.25 -0.109375 -0.5625 -0.109375q-0.421875 0 -0.765625 0.203125q-0.328125 0.203125 -0.5625 0.59375q-0.234375 0.390625 -0.359375 0.984375q-0.125 0.59375 -0.125 1.359375zm11.291229 4.0l-5.0 0l0 -0.984375l2.046875 0l0 -5.796875l-1.90625 1.03125l-0.390625 -0.890625l2.53125 -1.328125l0.9375 0l0 6.984375l1.78125 0l0 0.984375z" fill-rule="nonzero"/><path fill="#000000" d="m480.45053 15.560994l-7.828125 0l0 -1.328125l7.828125 0l0 1.328125zm0 3.171874l-7.828125 0l0 -1.328125l7.828125 0l0 1.328125z" fill-rule="nonzero"/><path fill="#000000" d="m493.49637 8.092244l7.296875 0l0 1.328125l-5.09375 0q0.90625 0.9375 2.84375 2.28125q1.734375 1.203125 2.421875 2.234375q0.6875 1.015625 0.6875 2.781249q0 2.359375 -1.28125 3.65625q-1.265625 1.296875 -3.3125 1.296875q-2.21875 0 -3.359375 -1.453125q-1.125 -1.46875 -1.125 -3.46875q0 -2.328124 1.1875 -3.546874q1.203125 -1.234375 2.859375 -1.296875q-0.84375 -0.59375 -3.125 -2.625l0 -1.1875zm0.75 8.671874q0 1.546875 0.8125 2.5625q0.828125 1.0 2.09375 1.0q1.109375 0 1.953125 -0.859375q0.859375 -0.859375 0.859375 -2.703125q0 -1.718749 -0.8125 -2.656249q-0.8125 -0.9375 -2.046875 -0.9375q-1.359375 0 -2.109375 1.0625q-0.75 1.046875 -0.75 2.531249z" fill-rule="nonzero"/><path fill="#000000" d="m511.11557 8.576619l-6.25 14.828124l-1.515625 0l6.25 -14.828124l1.515625 0zm11.616669 12.874999l-1.765625 0l-0.84375 -2.59375l-4.953125 0l-0.828125 2.59375l-1.6875 0l3.953125 -11.906249l2.21875 0l3.90625 11.906249zm-3.0625 -4.046875l-2.015625 -6.359374l-2.015625 6.359374l4.03125 0z" fill-rule="nonzero"/><path fill="#000000" d="m436.08405 42.029747l0 0c0 -2.565731 2.1716003 -4.645668 4.850403 -4.645668l0 0c1.2864075 0 2.520111 0.48945236 3.4297485 1.3606834c0.90960693 0.8712349 1.4206543 2.0528755 1.4206543 3.2849846l0 0c0 2.5657349 -2.1716003 4.645672 -4.850403 4.645672l0 0c-2.6788025 0 -4.850403 -2.079937 -4.850403 -4.645672z" fill-rule="evenodd"/><path stroke="#000000" stroke-width="1.0" stroke-linejoin="round" stroke-linecap="butt" d="m436.08405 42.029747l0 0c0 -2.565731 2.1716003 -4.645668 4.850403 -4.645668l0 0c1.2864075 0 2.520111 0.48945236 3.4297485 1.3606834c0.90960693 0.8712349 1.4206543 2.0528755 1.4206543 3.2849846l0 0c0 2.5657349 -2.1716003 4.645672 -4.850403 4.645672l0 0c-2.6788025 0 -4.850403 -2.079937 -4.850403 -4.645672z" fill-rule="evenodd"/><path fill="#000000" d="m824.3406 42.271786l0 0c0 -2.565731 2.1715698 -4.645668 4.850403 -4.645668l0 0c1.286377 0 2.5200806 0.48945236 3.4297485 1.3606834c0.90960693 0.8712349 1.4205933 2.0528793 1.4205933 3.2849846l0 0c0 2.5657349 -2.1715698 4.645672 -4.850342 4.645672l0 0c-2.678833 0 -4.850403 -2.079937 -4.850403 -4.645672z" fill-rule="evenodd"/><path stroke="#000000" stroke-width="1.0" stroke-linejoin="round" stroke-linecap="butt" d="m824.3406 42.271786l0 0c0 -2.565731 2.1715698 -4.645668 4.850403 -4.645668l0 0c1.286377 0 2.5200806 0.48945236 3.4297485 1.3606834c0.90960693 0.8712349 1.4205933 2.0528793 1.4205933 3.2849846l0 0c0 2.5657349 -2.1715698 4.645672 -4.850342 4.645672l0 0c-2.678833 0 -4.850403 -2.079937 -4.850403 -4.645672z" fill-rule="evenodd"/><path fill="#000000" d="m436.08472 228.29704l0 0c0 -2.5657349 2.1716003 -4.6456757 4.850403 -4.6456757l0 0c1.2864075 0 2.520111 0.48945618 3.4297485 1.3606873c0.90960693 0.8712311 1.4206238 2.0528717 1.4206238 3.2849884l0 0c0 2.5657349 -2.1715698 4.6456604 -4.8503723 4.6456604l0 0c-2.6788025 0 -4.850403 -2.0799255 -4.850403 -4.6456604z" fill-rule="evenodd"/><path stroke="#000000" stroke-width="1.0" stroke-linejoin="round" stroke-linecap="butt" d="m436.08472 228.29704l0 0c0 -2.5657349 2.1716003 -4.6456757 4.850403 -4.6456757l0 0c1.2864075 0 2.520111 0.48945618 3.4297485 1.3606873c0.90960693 0.8712311 1.4206238 2.0528717 1.4206238 3.2849884l0 0c0 2.5657349 -2.1715698 4.6456604 -4.8503723 4.6456604l0 0c-2.6788025 0 -4.850403 -2.0799255 -4.850403 -4.6456604z" fill-rule="evenodd"/><path fill="#000000" d="m824.3399 228.29704l0 0c0 -2.5657349 2.1715698 -4.6456757 4.850403 -4.6456757l0 0c1.286377 0 2.5200806 0.48945618 3.4297485 1.3606873c0.90960693 0.8712311 1.4206543 2.0528717 1.4206543 3.2849884l0 0c0 2.5657349 -2.1716309 4.6456604 -4.850403 4.6456604l0 0c-2.678833 0 -4.850403 -2.0799255 -4.850403 -4.6456604z" fill-rule="evenodd"/><path stroke="#000000" stroke-width="1.0" stroke-linejoin="round" stroke-linecap="butt" d="m824.3399 228.29704l0 0c0 -2.5657349 2.1715698 -4.6456757 4.850403 -4.6456757l0 0c1.286377 0 2.5200806 0.48945618 3.4297485 1.3606873c0.90960693 0.8712311 1.4206543 2.0528717 1.4206543 3.2849884l0 0c0 2.5657349 -2.1716309 4.6456604 -4.850403 4.6456604l0 0c-2.678833 0 -4.850403 -2.0799255 -4.850403 -4.6456604z" fill-rule="evenodd"/><path fill="#000000" d="m533.79407 150.31285l9.700745 0l0 9.291336l-9.700745 0z" fill-rule="evenodd"/><path stroke="#000000" stroke-width="1.0" stroke-linejoin="round" stroke-linecap="butt" d="m533.79407 150.31285l9.700745 0l0 9.291336l-9.700745 0z" fill-rule="evenodd"/><path fill="#000000" fill-opacity="0.0" d="m736.1299 3.5316207l93.3858 0l0 27.11811l-93.3858 0z" fill-rule="evenodd"/><path fill="#000000" d="m758.3087 12.310994l-1.328125 9.140624l-1.921875 0l-1.3125 -3.828125l-0.265625 -0.921875l-0.296875 0.984375l-1.265625 3.765625l-1.875 0l-1.3125 -9.140624l1.546875 0l0.765625 6.203124l0.15625 1.390625l0.390625 -1.21875l1.328125 -4.109374l1.140625 0l1.4375 4.062499l0.40625 1.203125l0.140625 -1.28125l0.703125 -6.249999l1.5625 0z" fill-rule="nonzero"/><path fill="#000000" d="m764.7066 28.451618l-5.0 0l0 -0.984375l2.046875 0l0 -5.796875l-1.90625 1.03125l-0.390625 -0.890625l2.53125 -1.328125l0.9375 0l0 6.984375l1.78125 0l0 0.984375zm6.838135 0l-5.0 0l0 -0.984375l2.046875 0l0 -5.796875l-1.90625 1.03125l-0.390625 -0.890625l2.53125 -1.328125l0.9375 0l0 6.984375l1.78125 0l0 0.984375z" fill-rule="nonzero"/><path fill="#000000" d="m788.20526 15.560994l-7.828125 0l0 -1.328125l7.828125 0l0 1.328125zm0 3.171874l-7.828125 0l0 -1.328125l7.828125 0l0 1.328125z" fill-rule="nonzero"/><path fill="#000000" d="m799.90735 11.779744l1.71875 0l2.703125 7.624999l2.765625 -7.624999l1.671875 0l-3.609375 9.671874l0 3.703125l-1.671875 0l0 -3.703125l-3.578125 -9.671874z" fill-rule="nonzero"/><path fill="#000000" d="m817.8136 8.576619l-6.25 14.828124l-1.515625 0l6.25 -14.828124l1.515625 0zm11.616699 12.874999l-1.765625 0l-0.84375 -2.59375l-4.953125 0l-0.828125 2.59375l-1.6875 0l3.953125 -11.906249l2.21875 0l3.90625 11.906249zm-3.0625 -4.046875l-2.015625 -6.359374l-2.015625 6.359374l4.03125 0z" fill-rule="nonzero"/><path fill="#000000" fill-opacity="0.0" d="m741.20074 235.64534l88.31494 0l0 27.118118l-88.31494 0z" fill-rule="evenodd"/><path fill="#000000" d="m756.8512 244.42471l-1.328125 9.140625l-1.921875 0l-1.3125 -3.828125l-0.265625 -0.921875l-0.296875 0.984375l-1.265625 3.765625l-1.875 0l-1.3125 -9.140625l1.546875 0l0.765625 6.203125l0.15625 1.390625l0.390625 -1.21875l1.328125 -4.109375l1.140625 0l1.4375 4.0625l0.40625 1.203125l0.140625 -1.28125l0.703125 -6.25l1.5625 0z" fill-rule="nonzero"/><path fill="#000000" d="m763.2491 260.56534l-5.0 0l0 -0.984375l2.046875 0l0 -5.796875l-1.90625 1.03125l-0.390625 -0.890625l2.53125 -1.328125l0.9375 0l0 6.984375l1.78125 0l0 0.984375zm7.07251 -3.96875q0 0.90625 -0.1875 1.65625q-0.171875 0.75 -0.546875 1.296875q-0.359375 0.53125 -0.921875 0.828125q-0.546875 0.296875 -1.28125 0.296875q-0.640625 0 -1.171875 -0.234375q-0.515625 -0.25 -0.890625 -0.734375q-0.359375 -0.5 -0.5625 -1.265625q-0.203125 -0.78125 -0.203125 -1.84375q0 -0.90625 0.1875 -1.65625q0.1875 -0.75 0.546875 -1.28125q0.375 -0.546875 0.921875 -0.84375q0.5625 -0.296875 1.296875 -0.296875q0.640625 0 1.15625 0.25q0.515625 0.234375 0.890625 0.734375q0.375 0.5 0.5625 1.28125q0.203125 0.765625 0.203125 1.8125zm-1.0625 0.046875q0 -0.21875 -0.015625 -0.421875q-0.015625 -0.203125 -0.03125 -0.390625l-3.359375 2.5q0.09375 0.3125 0.234375 0.578125q0.140625 0.265625 0.328125 0.453125q0.203125 0.1875 0.453125 0.296875q0.25 0.109375 0.578125 0.109375q0.40625 0 0.734375 -0.203125q0.34375 -0.203125 0.578125 -0.59375q0.25 -0.390625 0.375 -0.96875q0.125 -0.59375 0.125 -1.359375zm-3.625 -0.078125q0 0.1875 0 0.375q0 0.1875 0.015625 0.359375l3.359375 -2.484375q-0.09375 -0.3125 -0.234375 -0.5625q-0.140625 -0.25 -0.328125 -0.4375q-0.1875 -0.1875 -0.4375 -0.28125q-0.25 -0.109375 -0.5625 -0.109375q-0.421875 0 -0.765625 0.203125q-0.328125 0.203125 -0.5625 0.59375q-0.234375 0.390625 -0.359375 0.984375q-0.125 0.59375 -0.125 1.359375z" fill-rule="nonzero"/><path fill="#000000" d="m786.74774 247.67471l-7.828125 0l0 -1.328125l7.828125 0l0 1.328125zm0 3.171875l-7.828125 0l0 -1.328125l7.828125 0l0 1.328125z" fill-rule="nonzero"/><path fill="#000000" d="m806.6217 243.89346l1.671875 0q-0.625 2.0 -1.171875 4.828125q0.640625 3.515625 1.171875 4.84375l-1.625 0q-0.390625 -0.90625 -0.59375 -1.765625q-0.75 1.984375 -3.15625 1.984375q-1.828125 0 -2.9375 -1.359375q-1.109375 -1.375 -1.109375 -3.71875q0 -2.40625 1.109375 -3.71875q1.125 -1.3125 2.96875 -1.3125q1.125 0 1.84375 0.46875q0.734375 0.453125 1.34375 1.390625q0.0625 -0.328125 0.484375 -1.640625zm-3.40625 1.140625q-1.171875 0 -1.859375 0.953125q-0.6875 0.9375 -0.6875 2.71875q0 1.75 0.640625 2.75q0.65625 0.984375 1.8125 0.984375q1.140625 0 1.890625 -0.984375q0.75 -0.984375 0.75 -2.8125q0 -1.796875 -0.703125 -2.703125q-0.703125 -0.90625 -1.84375 -0.90625z" fill-rule="nonzero"/><path fill="#000000" d="m817.8136 240.69034l-6.25 14.828125l-1.515625 0l6.25 -14.828125l1.515625 0zm11.616699 12.875l-1.765625 0l-0.84375 -2.59375l-4.953125 0l-0.828125 2.59375l-1.6875 0l3.953125 -11.90625l2.21875 0l3.90625 11.90625zm-3.0625 -4.046875l-2.015625 -6.359375l-2.015625 6.359375l4.03125 0z" fill-rule="nonzero"/><path fill="#000000" fill-opacity="0.0" d="m440.63208 236.85489l140.78741 0l0 27.118103l-140.78741 0z" fill-rule="evenodd"/><path fill="#000000" d="m450.55396 245.63426l-1.328125 9.140625l-1.921875 0l-1.3125 -3.828125l-0.265625 -0.921875l-0.296875 0.984375l-1.265625 3.765625l-1.875 0l-1.3125 -9.140625l1.546875 0l0.765625 6.203125l0.15625 1.390625l0.390625 -1.21875l1.328125 -4.109375l1.140625 0l1.4375 4.0625l0.40625 1.203125l0.140625 -1.28125l0.703125 -6.25l1.5625 0z" fill-rule="nonzero"/><path fill="#000000" d="m457.18625 257.80615q0 0.90625 -0.1875 1.65625q-0.171875 0.75 -0.546875 1.296875q-0.359375 0.53125 -0.921875 0.828125q-0.546875 0.296875 -1.28125 0.296875q-0.640625 0 -1.171875 -0.234375q-0.515625 -0.25 -0.890625 -0.734375q-0.359375 -0.5 -0.5625 -1.265625q-0.203125 -0.78125 -0.203125 -1.84375q0 -0.90625 0.1875 -1.65625q0.1875 -0.75001526 0.546875 -1.2812653q0.375 -0.546875 0.921875 -0.84375q0.5625 -0.296875 1.296875 -0.296875q0.640625 0 1.15625 0.25q0.515625 0.234375 0.890625 0.734375q0.375 0.5 0.5625 1.28125q0.203125 0.76564026 0.203125 1.8125153zm-1.0625 0.046875q0 -0.21875 -0.015625 -0.421875q-0.015625 -0.203125 -0.03125 -0.390625l-3.359375 2.5q0.09375 0.3125 0.234375 0.578125q0.140625 0.265625 0.328125 0.453125q0.203125 0.1875 0.453125 0.296875q0.25 0.109375 0.578125 0.109375q0.40625 0 0.734375 -0.203125q0.34375 -0.203125 0.578125 -0.59375q0.25 -0.390625 0.375 -0.96875q0.125 -0.59375 0.125 -1.359375zm-3.625 -0.078125q0 0.1875 0 0.375q0 0.1875 0.015625 0.359375l3.359375 -2.484375q-0.09375 -0.31251526 -0.234375 -0.56251526q-0.140625 -0.25 -0.328125 -0.4375q-0.1875 -0.1875 -0.4375 -0.28125q-0.25 -0.109375 -0.5625 -0.109375q-0.421875 0 -0.765625 0.203125q-0.328125 0.203125 -0.5625 0.59375q-0.234375 0.390625 -0.359375 0.98439026q-0.125 0.59375 -0.125 1.359375zm11.525604 0.03125q0 0.90625 -0.1875 1.65625q-0.171875 0.75 -0.546875 1.296875q-0.359375 0.53125 -0.921875 0.828125q-0.546875 0.296875 -1.28125 0.296875q-0.640625 0 -1.171875 -0.234375q-0.515625 -0.25 -0.890625 -0.734375q-0.359375 -0.5 -0.5625 -1.265625q-0.203125 -0.78125 -0.203125 -1.84375q0 -0.90625 0.1875 -1.65625q0.1875 -0.75001526 0.546875 -1.2812653q0.375 -0.546875 0.921875 -0.84375q0.5625 -0.296875 1.296875 -0.296875q0.640625 0 1.15625 0.25q0.515625 0.234375 0.890625 0.734375q0.375 0.5 0.5625 1.28125q0.203125 0.76564026 0.203125 1.8125153zm-1.0625 0.046875q0 -0.21875 -0.015625 -0.421875q-0.015625 -0.203125 -0.03125 -0.390625l-3.359375 2.5q0.09375 0.3125 0.234375 0.578125q0.140625 0.265625 0.328125 0.453125q0.203125 0.1875 0.453125 0.296875q0.25 0.109375 0.578125 0.109375q0.40625 0 0.734375 -0.203125q0.34375 -0.203125 0.578125 -0.59375q0.25 -0.390625 0.375 -0.96875q0.125 -0.59375 0.125 -1.359375zm-3.625 -0.078125q0 0.1875 0 0.375q0 0.1875 0.015625 0.359375l3.359375 -2.484375q-0.09375 -0.31251526 -0.234375 -0.56251526q-0.140625 -0.25 -0.328125 -0.4375q-0.1875 -0.1875 -0.4375 -0.28125q-0.25 -0.109375 -0.5625 -0.109375q-0.421875 0 -0.765625 0.203125q-0.328125 0.203125 -0.5625 0.59375q-0.234375 0.390625 -0.359375 0.98439026q-0.125 0.59375 -0.125 1.359375z" fill-rule="nonzero"/><path fill="#000000" d="m480.45053 248.88426l-7.828125 0l0 -1.328125l7.828125 0l0 1.328125zm0 3.171875l-7.828125 0l0 -1.328125l7.828125 0l0 1.328125z" fill-rule="nonzero"/><path fill="#000000" d="m494.8245 253.54051l0 4.9375153l-1.625 0l0 -12.875015q0 -1.53125 0.40625 -2.390625q0.421875 -0.875 1.421875 -1.4375q1.015625 -0.578125 2.25 -0.578125q1.84375 0 2.78125 1.046875q0.9375 1.046875 0.9375 2.296875q0 1.21875 -0.765625 1.96875q-0.75 0.75 -1.734375 0.921875q1.578125 0.15625 2.4375 1.140625q0.875 0.984375 0.875 2.421875q0 1.546875 -1.015625 2.78125q-1.015625 1.21875 -2.9375 1.21875q-1.96875 0 -3.03125 -1.453125zm1.453125 -6.640625q1.671875 0 2.4375 -0.578125q0.765625 -0.578125 0.765625 -1.6875q0 -0.890625 -0.65625 -1.484375q-0.640625 -0.609375 -1.625 -0.609375q-0.84375 0 -1.46875 0.453125q-0.625 0.4375 -0.765625 0.984375q-0.140625 0.546875 -0.140625 1.921875l0 3.671875q0 1.5625 0.21875 2.296875q0.21875 0.734375 0.9375 1.328125q0.71875 0.59375 1.65625 0.59375q1.140625 0 1.796875 -0.78125q0.671875 -0.78125 0.671875 -1.921875q0 -0.953125 -0.5 -1.703125q-0.484375 -0.75 -1.203125 -1.015625q-0.703125 -0.265625 -1.890625 -0.265625l-0.234375 0l0 -1.203125z" fill-rule="nonzero"/><path fill="#000000" d="m511.46173 241.89989l-6.25 14.82814l-1.515625 0l6.25 -14.82814l1.515625 0zm11.616638 12.875l-1.765625 0l-0.84375 -2.59375l-4.953125 0l-0.828125 2.59375l-1.6875 0l3.953125 -11.90625l2.21875 0l3.90625 11.90625zm-3.0625 -4.046875l-2.015625 -6.359375l-2.015625 6.359375l4.03125 0z" fill-rule="nonzero"/><path fill="#000000" fill-opacity="0.0" d="m797.04846 196.54297l27.307129 0l0 27.118118l-27.307129 0z" fill-rule="evenodd"/><path fill="#000000" d="m805.09534 206.60359q0.25 0.328125 0.390625 0.75q0.140625 0.421875 0.140625 0.921875q0 0.703125 -0.265625 1.296875q-0.25 0.578125 -0.734375 1.0q-0.46875 0.421875 -1.125 0.65625q-0.65625 0.234375 -1.453125 0.234375q-0.578125 0 -1.078125 -0.125q-0.5 -0.125 -0.78125 -0.3125q-0.1875 0.265625 -0.3125 0.5q-0.109375 0.21875 -0.109375 0.5q0 0.34375 0.328125 0.578125q0.34375 0.21875 0.890625 0.234375l2.40625 0.09375q0.671875 0.015625 1.25 0.171875q0.59375 0.15625 1.0 0.453125q0.421875 0.28125 0.640625 0.71875q0.234375 0.421875 0.234375 0.984375q0 0.609375 -0.265625 1.15625q-0.25 0.546875 -0.8125 0.953125q-0.546875 0.421875 -1.390625 0.671875q-0.84375 0.25 -2.015625 0.25q-1.109375 0 -1.890625 -0.1875q-0.78125 -0.171875 -1.28125 -0.484375q-0.5 -0.3125 -0.734375 -0.75q-0.21875 -0.421875 -0.21875 -0.953125q0 -0.65625 0.296875 -1.15625q0.3125 -0.5 0.96875 -0.96875q-0.234375 -0.109375 -0.40625 -0.265625q-0.171875 -0.171875 -0.28125 -0.359375q-0.109375 -0.203125 -0.171875 -0.421875q-0.046875 -0.21875 -0.046875 -0.4375q0 -0.578125 0.265625 -1.0625q0.28125 -0.5 0.671875 -0.9375q-0.171875 -0.21875 -0.3125 -0.40625q-0.125 -0.203125 -0.234375 -0.4375q-0.09375 -0.234375 -0.140625 -0.5q-0.046875 -0.28125 -0.046875 -0.625q0 -0.703125 0.25 -1.28125q0.265625 -0.59375 0.734375 -1.015625q0.46875 -0.421875 1.125 -0.65625q0.671875 -0.234375 1.46875 -0.234375q0.34375 0 0.640625 0.046875q0.3125 0.046875 0.546875 0.125l3.328125 0l0 1.28125l-1.46875 0zm-5.5 9.1875q0 0.640625 0.671875 0.9375q0.671875 0.296875 1.875 0.296875q0.75 0 1.265625 -0.140625q0.515625 -0.140625 0.828125 -0.359375q0.3125 -0.21875 0.453125 -0.515625q0.140625 -0.28125 0.140625 -0.578125q0 -0.5625 -0.453125 -0.828125q-0.453125 -0.265625 -1.390625 -0.296875l-2.390625 -0.09375q-0.296875 0.203125 -0.5 0.390625q-0.203125 0.203125 -0.3125 0.390625q-0.109375 0.203125 -0.15625 0.390625q-0.03125 0.203125 -0.03125 0.40625zm0.484375 -7.484375q0 0.4375 0.140625 0.8125q0.140625 0.359375 0.40625 0.609375q0.265625 0.25 0.625 0.390625q0.359375 0.140625 0.796875 0.140625q0.46875 0 0.84375 -0.15625q0.375 -0.15625 0.625 -0.421875q0.25 -0.28125 0.375 -0.640625q0.140625 -0.359375 0.140625 -0.734375q0 -0.4375 -0.15625 -0.796875q-0.140625 -0.375 -0.40625 -0.625q-0.265625 -0.25 -0.625 -0.390625q-0.359375 -0.140625 -0.796875 -0.140625q-0.46875 0 -0.84375 0.171875q-0.359375 0.15625 -0.625 0.421875q-0.25 0.265625 -0.375 0.625q-0.125 0.34375 -0.125 0.734375z" fill-rule="nonzero"/><path fill="#000000" d="m813.3683 221.46297l-5.0 0l0 -0.984375l2.046875 0l0 -5.796875l-1.90625 1.03125l-0.390625 -0.890625l2.53125 -1.328125l0.9375 0l0 6.984375l1.78125 0l0 0.984375zm7.0724487 -3.96875q0 0.90625 -0.1875 1.65625q-0.171875 0.75 -0.546875 1.296875q-0.359375 0.53125 -0.921875 0.828125q-0.546875 0.296875 -1.28125 0.296875q-0.640625 0 -1.171875 -0.234375q-0.515625 -0.25 -0.890625 -0.734375q-0.359375 -0.5 -0.5625 -1.265625q-0.203125 -0.78125 -0.203125 -1.84375q0 -0.90625 0.1875 -1.65625q0.1875 -0.75 0.546875 -1.28125q0.375 -0.546875 0.921875 -0.84375q0.5625 -0.296875 1.296875 -0.296875q0.640625 0 1.15625 0.25q0.515625 0.234375 0.890625 0.734375q0.375 0.5 0.5625 1.28125q0.203125 0.765625 0.203125 1.8125zm-1.0625 0.046875q0 -0.21875 -0.015625 -0.421875q-0.015625 -0.203125 -0.03125 -0.390625l-3.359375 2.5q0.09375 0.3125 0.234375 0.578125q0.140625 0.265625 0.328125 0.453125q0.203125 0.1875 0.453125 0.296875q0.25 0.109375 0.578125 0.109375q0.40625 0 0.734375 -0.203125q0.34375 -0.203125 0.578125 -0.59375q0.25 -0.390625 0.375 -0.96875q0.125 -0.59375 0.125 -1.359375zm-3.625 -0.078125q0 0.1875 0 0.375q0 0.1875 0.015625 0.359375l3.359375 -2.484375q-0.09375 -0.3125 -0.234375 -0.5625q-0.140625 -0.25 -0.328125 -0.4375q-0.1875 -0.1875 -0.4375 -0.28125q-0.25 -0.109375 -0.5625 -0.109375q-0.421875 0 -0.765625 0.203125q-0.328125 0.203125 -0.5625 0.59375q-0.234375 0.390625 -0.359375 0.984375q-0.125 0.59375 -0.125 1.359375z" fill-rule="nonzero"/><path fill="#000000" fill-opacity="0.0" d="m797.04846 47.92962l27.307129 0l0 27.11811l-27.307129 0z" fill-rule="evenodd"/><path fill="#000000" d="m805.09534 57.990242q0.25 0.328125 0.390625 0.75q0.140625 0.421875 0.140625 0.921875q0 0.703125 -0.265625 1.296875q-0.25 0.578125 -0.734375 1.0q-0.46875 0.421875 -1.125 0.65625q-0.65625 0.234375 -1.453125 0.234375q-0.578125 0 -1.078125 -0.125q-0.5 -0.125 -0.78125 -0.3125q-0.1875 0.265625 -0.3125 0.5q-0.109375 0.21875 -0.109375 0.5q0 0.34375 0.328125 0.578125q0.34375 0.21875 0.890625 0.234375l2.40625 0.09375q0.671875 0.015625 1.25 0.171875q0.59375 0.15625 1.0 0.453125q0.421875 0.28125 0.640625 0.71875q0.234375 0.421875 0.234375 0.984375q0 0.609375 -0.265625 1.15625q-0.25 0.546875 -0.8125 0.953125q-0.546875 0.421875 -1.390625 0.671875q-0.84375 0.25 -2.015625 0.25q-1.109375 0 -1.890625 -0.1875q-0.78125 -0.171875 -1.28125 -0.484375q-0.5 -0.3125 -0.734375 -0.75q-0.21875 -0.421875 -0.21875 -0.953125q0 -0.65625 0.296875 -1.15625q0.3125 -0.5 0.96875 -0.96875q-0.234375 -0.109375 -0.40625 -0.265625q-0.171875 -0.171875 -0.28125 -0.359375q-0.109375 -0.203125 -0.171875 -0.421875q-0.046875 -0.21875 -0.046875 -0.4375q0 -0.578125 0.265625 -1.0625q0.28125 -0.5 0.671875 -0.9375q-0.171875 -0.21875 -0.3125 -0.40625q-0.125 -0.203125 -0.234375 -0.4375q-0.09375 -0.234375 -0.140625 -0.5q-0.046875 -0.28125 -0.046875 -0.625q0 -0.703125 0.25 -1.28125q0.265625 -0.59375 0.734375 -1.015625q0.46875 -0.421875 1.125 -0.65625q0.671875 -0.234375 1.46875 -0.234375q0.34375 0 0.640625 0.046875q0.3125 0.046875 0.546875 0.125l3.328125 0l0 1.28125l-1.46875 0zm-5.5 9.1875q0 0.640625 0.671875 0.9375q0.671875 0.296875 1.875 0.296875q0.75 0 1.265625 -0.140625q0.515625 -0.140625 0.828125 -0.359375q0.3125 -0.21875 0.453125 -0.515625q0.140625 -0.28125 0.140625 -0.578125q0 -0.5625 -0.453125 -0.828125q-0.453125 -0.265625 -1.390625 -0.296875l-2.390625 -0.09375q-0.296875 0.203125 -0.5 0.390625q-0.203125 0.203125 -0.3125 0.390625q-0.109375 0.203125 -0.15625 0.390625q-0.03125 0.203125 -0.03125 0.40625zm0.484375 -7.484375q0 0.4375 0.140625 0.8125q0.140625 0.359375 0.40625 0.609375q0.265625 0.25 0.625 0.390625q0.359375 0.140625 0.796875 0.140625q0.46875 0 0.84375 -0.15625q0.375 -0.15625 0.625 -0.421875q0.25 -0.28125 0.375 -0.640625q0.140625 -0.359375 0.140625 -0.734375q0 -0.4375 -0.15625 -0.796875q-0.140625 -0.375 -0.40625 -0.625q-0.265625 -0.25 -0.625 -0.390625q-0.359375 -0.140625 -0.796875 -0.140625q-0.46875 0 -0.84375 0.171875q-0.359375 0.15625 -0.625 0.421875q-0.25 0.265625 -0.375 0.625q-0.125 0.34375 -0.125 0.734375z" fill-rule="nonzero"/><path fill="#000000" d="m813.3683 72.84962l-5.0 0l0 -0.984375l2.046875 0l0 -5.796875l-1.90625 1.03125l-0.390625 -0.890625l2.53125 -1.328125l0.9375 0l0 6.984375l1.78125 0l0 0.984375zm6.8380737 0l-5.0 0l0 -0.984375l2.046875 0l0 -5.796875l-1.90625 1.03125l-0.390625 -0.890625l2.53125 -1.328125l0.9375 0l0 6.984375l1.78125 0l0 0.984375z" fill-rule="nonzero"/><path fill="#000000" fill-opacity="0.0" d="m445.79755 196.54297l27.307068 0l0 27.118118l-27.307068 0z" fill-rule="evenodd"/><path fill="#000000" d="m453.84442 206.60359q0.25 0.328125 0.390625 0.75q0.140625 0.421875 0.140625 0.921875q0 0.703125 -0.265625 1.296875q-0.25 0.578125 -0.734375 1.0q-0.46875 0.421875 -1.125 0.65625q-0.65625 0.234375 -1.453125 0.234375q-0.578125 0 -1.078125 -0.125q-0.5 -0.125 -0.78125 -0.3125q-0.1875 0.265625 -0.3125 0.5q-0.109375 0.21875 -0.109375 0.5q0 0.34375 0.328125 0.578125q0.34375 0.21875 0.890625 0.234375l2.40625 0.09375q0.671875 0.015625 1.25 0.171875q0.59375 0.15625 1.0 0.453125q0.421875 0.28125 0.640625 0.71875q0.234375 0.421875 0.234375 0.984375q0 0.609375 -0.265625 1.15625q-0.25 0.546875 -0.8125 0.953125q-0.546875 0.421875 -1.390625 0.671875q-0.84375 0.25 -2.015625 0.25q-1.109375 0 -1.890625 -0.1875q-0.78125 -0.171875 -1.28125 -0.484375q-0.5 -0.3125 -0.734375 -0.75q-0.21875 -0.421875 -0.21875 -0.953125q0 -0.65625 0.296875 -1.15625q0.3125 -0.5 0.96875 -0.96875q-0.234375 -0.109375 -0.40625 -0.265625q-0.171875 -0.171875 -0.28125 -0.359375q-0.109375 -0.203125 -0.171875 -0.421875q-0.046875 -0.21875 -0.046875 -0.4375q0 -0.578125 0.265625 -1.0625q0.28125 -0.5 0.671875 -0.9375q-0.171875 -0.21875 -0.3125 -0.40625q-0.125 -0.203125 -0.234375 -0.4375q-0.09375 -0.234375 -0.140625 -0.5q-0.046875 -0.28125 -0.046875 -0.625q0 -0.703125 0.25 -1.28125q0.265625 -0.59375 0.734375 -1.015625q0.46875 -0.421875 1.125 -0.65625q0.671875 -0.234375 1.46875 -0.234375q0.34375 0 0.640625 0.046875q0.3125 0.046875 0.546875 0.125l3.328125 0l0 1.28125l-1.46875 0zm-5.5 9.1875q0 0.640625 0.671875 0.9375q0.671875 0.296875 1.875 0.296875q0.75 0 1.265625 -0.140625q0.515625 -0.140625 0.828125 -0.359375q0.3125 -0.21875 0.453125 -0.515625q0.140625 -0.28125 0.140625 -0.578125q0 -0.5625 -0.453125 -0.828125q-0.453125 -0.265625 -1.390625 -0.296875l-2.390625 -0.09375q-0.296875 0.203125 -0.5 0.390625q-0.203125 0.203125 -0.3125 0.390625q-0.109375 0.203125 -0.15625 0.390625q-0.03125 0.203125 -0.03125 0.40625zm0.484375 -7.484375q0 0.4375 0.140625 0.8125q0.140625 0.359375 0.40625 0.609375q0.265625 0.25 0.625 0.390625q0.359375 0.140625 0.796875 0.140625q0.46875 0 0.84375 -0.15625q0.375 -0.15625 0.625 -0.421875q0.25 -0.28125 0.375 -0.640625q0.140625 -0.359375 0.140625 -0.734375q0 -0.4375 -0.15625 -0.796875q-0.140625 -0.375 -0.40625 -0.625q-0.265625 -0.25 -0.625 -0.390625q-0.359375 -0.140625 -0.796875 -0.140625q-0.46875 0 -0.84375 0.171875q-0.359375 0.15625 -0.625 0.421875q-0.25 0.265625 -0.375 0.625q-0.125 0.34375 -0.125 0.734375z" fill-rule="nonzero"/><path fill="#000000" d="m462.3517 217.49422q0 0.90625 -0.1875 1.65625q-0.171875 0.75 -0.546875 1.296875q-0.359375 0.53125 -0.921875 0.828125q-0.546875 0.296875 -1.28125 0.296875q-0.640625 0 -1.171875 -0.234375q-0.515625 -0.25 -0.890625 -0.734375q-0.359375 -0.5 -0.5625 -1.265625q-0.203125 -0.78125 -0.203125 -1.84375q0 -0.90625 0.1875 -1.65625q0.1875 -0.75 0.546875 -1.28125q0.375 -0.546875 0.921875 -0.84375q0.5625 -0.296875 1.296875 -0.296875q0.640625 0 1.15625 0.25q0.515625 0.234375 0.890625 0.734375q0.375 0.5 0.5625 1.28125q0.203125 0.765625 0.203125 1.8125zm-1.0625 0.046875q0 -0.21875 -0.015625 -0.421875q-0.015625 -0.203125 -0.03125 -0.390625l-3.359375 2.5q0.09375 0.3125 0.234375 0.578125q0.140625 0.265625 0.328125 0.453125q0.203125 0.1875 0.453125 0.296875q0.25 0.109375 0.578125 0.109375q0.40625 0 0.734375 -0.203125q0.34375 -0.203125 0.578125 -0.59375q0.25 -0.390625 0.375 -0.96875q0.125 -0.59375 0.125 -1.359375zm-3.625 -0.078125q0 0.1875 0 0.375q0 0.1875 0.015625 0.359375l3.359375 -2.484375q-0.09375 -0.3125 -0.234375 -0.5625q-0.140625 -0.25 -0.328125 -0.4375q-0.1875 -0.1875 -0.4375 -0.28125q-0.25 -0.109375 -0.5625 -0.109375q-0.421875 0 -0.765625 0.203125q-0.328125 0.203125 -0.5625 0.59375q-0.234375 0.390625 -0.359375 0.984375q-0.125 0.59375 -0.125 1.359375zm11.525574 0.03125q0 0.90625 -0.1875 1.65625q-0.171875 0.75 -0.546875 1.296875q-0.359375 0.53125 -0.921875 0.828125q-0.546875 0.296875 -1.28125 0.296875q-0.640625 0 -1.171875 -0.234375q-0.515625 -0.25 -0.890625 -0.734375q-0.359375 -0.5 -0.5625 -1.265625q-0.203125 -0.78125 -0.203125 -1.84375q0 -0.90625 0.1875 -1.65625q0.1875 -0.75 0.546875 -1.28125q0.375 -0.546875 0.921875 -0.84375q0.5625 -0.296875 1.296875 -0.296875q0.640625 0 1.15625 0.25q0.515625 0.234375 0.890625 0.734375q0.375 0.5 0.5625 1.28125q0.203125 0.765625 0.203125 1.8125zm-1.0625 0.046875q0 -0.21875 -0.015625 -0.421875q-0.015625 -0.203125 -0.03125 -0.390625l-3.359375 2.5q0.09375 0.3125 0.234375 0.578125q0.140625 0.265625 0.328125 0.453125q0.203125 0.1875 0.453125 0.296875q0.25 0.109375 0.578125 0.109375q0.40625 0 0.734375 -0.203125q0.34375 -0.203125 0.578125 -0.59375q0.25 -0.390625 0.375 -0.96875q0.125 -0.59375 0.125 -1.359375zm-3.625 -0.078125q0 0.1875 0 0.375q0 0.1875 0.015625 0.359375l3.359375 -2.484375q-0.09375 -0.3125 -0.234375 -0.5625q-0.140625 -0.25 -0.328125 -0.4375q-0.1875 -0.1875 -0.4375 -0.28125q-0.25 -0.109375 -0.5625 -0.109375q-0.421875 0 -0.765625 0.203125q-0.328125 0.203125 -0.5625 0.59375q-0.234375 0.390625 -0.359375 0.984375q-0.125 0.59375 -0.125 1.359375z" fill-rule="nonzero"/><path fill="#000000" fill-opacity="0.0" d="m445.79755 47.92962l27.307068 0l0 27.11811l-27.307068 0z" fill-rule="evenodd"/><path fill="#000000" d="m453.84442 57.990242q0.25 0.328125 0.390625 0.75q0.140625 0.421875 0.140625 0.921875q0 0.703125 -0.265625 1.296875q-0.25 0.578125 -0.734375 1.0q-0.46875 0.421875 -1.125 0.65625q-0.65625 0.234375 -1.453125 0.234375q-0.578125 0 -1.078125 -0.125q-0.5 -0.125 -0.78125 -0.3125q-0.1875 0.265625 -0.3125 0.5q-0.109375 0.21875 -0.109375 0.5q0 0.34375 0.328125 0.578125q0.34375 0.21875 0.890625 0.234375l2.40625 0.09375q0.671875 0.015625 1.25 0.171875q0.59375 0.15625 1.0 0.453125q0.421875 0.28125 0.640625 0.71875q0.234375 0.421875 0.234375 0.984375q0 0.609375 -0.265625 1.15625q-0.25 0.546875 -0.8125 0.953125q-0.546875 0.421875 -1.390625 0.671875q-0.84375 0.25 -2.015625 0.25q-1.109375 0 -1.890625 -0.1875q-0.78125 -0.171875 -1.28125 -0.484375q-0.5 -0.3125 -0.734375 -0.75q-0.21875 -0.421875 -0.21875 -0.953125q0 -0.65625 0.296875 -1.15625q0.3125 -0.5 0.96875 -0.96875q-0.234375 -0.109375 -0.40625 -0.265625q-0.171875 -0.171875 -0.28125 -0.359375q-0.109375 -0.203125 -0.171875 -0.421875q-0.046875 -0.21875 -0.046875 -0.4375q0 -0.578125 0.265625 -1.0625q0.28125 -0.5 0.671875 -0.9375q-0.171875 -0.21875 -0.3125 -0.40625q-0.125 -0.203125 -0.234375 -0.4375q-0.09375 -0.234375 -0.140625 -0.5q-0.046875 -0.28125 -0.046875 -0.625q0 -0.703125 0.25 -1.28125q0.265625 -0.59375 0.734375 -1.015625q0.46875 -0.421875 1.125 -0.65625q0.671875 -0.234375 1.46875 -0.234375q0.34375 0 0.640625 0.046875q0.3125 0.046875 0.546875 0.125l3.328125 0l0 1.28125l-1.46875 0zm-5.5 9.1875q0 0.640625 0.671875 0.9375q0.671875 0.296875 1.875 0.296875q0.75 0 1.265625 -0.140625q0.515625 -0.140625 0.828125 -0.359375q0.3125 -0.21875 0.453125 -0.515625q0.140625 -0.28125 0.140625 -0.578125q0 -0.5625 -0.453125 -0.828125q-0.453125 -0.265625 -1.390625 -0.296875l-2.390625 -0.09375q-0.296875 0.203125 -0.5 0.390625q-0.203125 0.203125 -0.3125 0.390625q-0.109375 0.203125 -0.15625 0.390625q-0.03125 0.203125 -0.03125 0.40625zm0.484375 -7.484375q0 0.4375 0.140625 0.8125q0.140625 0.359375 0.40625 0.609375q0.265625 0.25 0.625 0.390625q0.359375 0.140625 0.796875 0.140625q0.46875 0 0.84375 -0.15625q0.375 -0.15625 0.625 -0.421875q0.25 -0.28125 0.375 -0.640625q0.140625 -0.359375 0.140625 -0.734375q0 -0.4375 -0.15625 -0.796875q-0.140625 -0.375 -0.40625 -0.625q-0.265625 -0.25 -0.625 -0.390625q-0.359375 -0.140625 -0.796875 -0.140625q-0.46875 0 -0.84375 0.171875q-0.359375 0.15625 -0.625 0.421875q-0.25 0.265625 -0.375 0.625q-0.125 0.34375 -0.125 0.734375z" fill-rule="nonzero"/><path fill="#000000" d="m462.3517 68.88087q0 0.90625 -0.1875 1.65625q-0.171875 0.75 -0.546875 1.296875q-0.359375 0.53125 -0.921875 0.828125q-0.546875 0.296875 -1.28125 0.296875q-0.640625 0 -1.171875 -0.234375q-0.515625 -0.25 -0.890625 -0.734375q-0.359375 -0.5 -0.5625 -1.265625q-0.203125 -0.78125 -0.203125 -1.84375q0 -0.90625 0.1875 -1.65625q0.1875 -0.75 0.546875 -1.28125q0.375 -0.546875 0.921875 -0.84375q0.5625 -0.296875 1.296875 -0.296875q0.640625 0 1.15625 0.25q0.515625 0.234375 0.890625 0.734375q0.375 0.5 0.5625 1.28125q0.203125 0.765625 0.203125 1.8125zm-1.0625 0.046875q0 -0.21875 -0.015625 -0.421875q-0.015625 -0.203125 -0.03125 -0.390625l-3.359375 2.5q0.09375 0.3125 0.234375 0.578125q0.140625 0.265625 0.328125 0.453125q0.203125 0.1875 0.453125 0.296875q0.25 0.109375 0.578125 0.109375q0.40625 0 0.734375 -0.203125q0.34375 -0.203125 0.578125 -0.59375q0.25 -0.390625 0.375 -0.96875q0.125 -0.59375 0.125 -1.359375zm-3.625 -0.078125q0 0.1875 0 0.375q0 0.1875 0.015625 0.359375l3.359375 -2.484375q-0.09375 -0.3125 -0.234375 -0.5625q-0.140625 -0.25 -0.328125 -0.4375q-0.1875 -0.1875 -0.4375 -0.28125q-0.25 -0.109375 -0.5625 -0.109375q-0.421875 0 -0.765625 0.203125q-0.328125 0.203125 -0.5625 0.59375q-0.234375 0.390625 -0.359375 0.984375q-0.125 0.59375 -0.125 1.359375zm11.291199 4.0l-5.0 0l0 -0.984375l2.046875 0l0 -5.796875l-1.90625 1.03125l-0.390625 -0.890625l2.53125 -1.328125l0.9375 0l0 6.984375l1.78125 0l0 0.984375z" fill-rule="nonzero"/><path fill="#000000" fill-opacity="0.0" d="m545.89526 126.48755l27.307068 0l0 21.637802l-27.307068 0z" fill-rule="evenodd"/><path fill="#000000" d="m555.5984 144.40755l-2.109375 0l-2.46875 -3.484375l-2.4375 3.484375l-2.046875 0l3.546875 -4.59375l-3.390625 -4.546875l2.03125 0l2.40625 3.515625l2.359375 -3.515625l1.96875 0l-3.4375 4.578125l3.578125 4.5625z" fill-rule="nonzero"/><path fill="#000000" fill-opacity="0.0" d="m440.77658 155.92358l388.7559 -0.47244263" fill-rule="evenodd"/><path stroke="#000000" stroke-width="1.0" stroke-linejoin="round" stroke-linecap="butt" d="m440.77658 155.92358l388.7559 -0.47244263" fill-rule="evenodd"/></g></svg>