<svg version="1.1" viewBox="0.0 0.0 299.8923884514436 283.1496062992126" fill="none" stroke="none" stroke-linecap="square" stroke-miterlimit="10" xmlns:xlink="http://www.w3.org/1999/xlink" xmlns="http://www.w3.org/2000/svg"><clipPath id="p.0"><path d="m0 0l299.8924 0l0 283.1496l-299.8924 0l0 -283.1496z" clip-rule="nonzero"/></clipPath><g clip-path="url(#p.0)"><path fill="#000000" fill-opacity="0.0" d="m0 0l299.8924 0l0 283.1496l-299.8924 0z" fill-rule="evenodd"/><path fill="#000000" fill-opacity="0.0" d="m199.0 15.370079l0.25196838 240.0" fill-rule="evenodd"/><path stroke="#000000" stroke-width="1.0" stroke-linejoin="round" stroke-linecap="butt" d="m199.0 15.370079l0.25196838 240.0" fill-rule="evenodd"/><path fill="#000000" fill-opacity="0.0" d="m55.0 15.370079l0.25196838 240.0" fill-rule="evenodd"/><path stroke="#000000" stroke-width="1.0" stroke-linejoin="round" stroke-linecap="butt" d="m55.0 15.370079l0.25196838 240.0" fill-rule="evenodd"/><path fill="#000000" fill-opacity="0.0" d="m151.0 15.370079l0.25196838 240.0" fill-rule="evenodd"/><path stroke="#000000" stroke-width="1.0" stroke-linejoin="round" stroke-linecap="butt" d="m151.0 15.370079l0.25196838 240.0" fill-rule="evenodd"/><path fill="#000000" fill-opacity="0.0" d="m247.0 15.370079l0.25196838 240.0" fill-rule="evenodd"/><path stroke="#000000" stroke-width="1.0" stroke-linejoin="round" stroke-linecap="butt" d="m247.0 15.370079l0.25196838 240.0" fill-rule="evenodd"/><path fill="#000000" fill-opacity="0.0" d="m103.0 15.370079l0.25196838 240.0" fill-rule="evenodd"/><path stroke="#000000" stroke-width="1.0" stroke-linejoin="round" stroke-linecap="butt" d="m103.0 15.370079l0.25196838 240.0" fill-rule="evenodd"/><path fill="#000000" fill-opacity="0.0" d="m271.0 87.37008l-240.0 0.25196838" fill-rule="evenodd"/><path stroke="#000000" stroke-width="1.0" stroke-linejoin="round" stroke-linecap="butt" d="m271.0 87.37008l-240.0 0.25196838" fill-rule="evenodd"/><path fill="#000000" fill-opacity="0.0" d="m271.0 231.37007l-240.0 0.25196838" fill-rule="evenodd"/><path stroke="#000000" stroke-width="1.0" stroke-linejoin="round" stroke-linecap="butt" d="m271.0 231.37007l-240.0 0.25196838" fill-rule="evenodd"/><path fill="#000000" fill-opacity="0.0" d="m271.0 135.37007l-240.0 0.25196838" fill-rule="evenodd"/><path stroke="#000000" stroke-width="1.0" stroke-linejoin="round" stroke-linecap="butt" d="m271.0 135.37007l-240.0 0.25196838" fill-rule="evenodd"/><path fill="#000000" fill-opacity="0.0" d="m79.0 207.61845l192.0 -0.22047424" fill-rule="evenodd"/><path stroke="#ff0000" stroke-width="2.0" stroke-linejoin="round" stroke-linecap="butt" d="m79.0 207.61845l180.0 -0.20669556" fill-rule="evenodd"/><path fill="#ff0000" stroke="#ff0000" stroke-width="2.0" stroke-linecap="butt" d="m259.0038 210.71523l9.072388 -3.3138885l-9.079987 -3.2930298z" fill-rule="evenodd"/><path fill="#000000" fill-opacity="0.0" d="m79.37795 207.37007l-0.34645844 -192.0" fill-rule="evenodd"/><path stroke="#ff0000" stroke-width="2.0" stroke-linejoin="round" stroke-linecap="butt" d="m79.37795 207.37007l-0.3248062 -180.00002" fill-rule="evenodd"/><path fill="#ff0000" stroke="#ff0000" stroke-width="2.0" stroke-linecap="butt" d="m82.356606 27.364098l-3.3198318 -9.070219l-3.2870865 9.082142z" fill-rule="evenodd"/><path fill="#000000" fill-opacity="0.0" d="m271.0 183.37007l-240.0 0.25196838" fill-rule="evenodd"/><path stroke="#000000" stroke-width="1.0" stroke-linejoin="round" stroke-linecap="butt" d="m271.0 183.37007l-240.0 0.25196838" fill-rule="evenodd"/><path fill="#000000" fill-opacity="0.0" d="m271.0 39.37008l-240.0 0.25196838" fill-rule="evenodd"/><path stroke="#000000" stroke-width="1.0" stroke-linejoin="round" stroke-linecap="butt" d="m271.0 39.37008l-240.0 0.25196838" fill-rule="evenodd"/><path fill="#ff0000" d="m125.125 207.54134l0 0c0 -1.0610809 0.8601761 -1.9212646 1.921257 -1.9212646l0 0c0.509552 0 0.9982376 0.2024231 1.3585434 0.5627289c0.3603058 0.3603058 0.5627136 0.84898376 0.5627136 1.3585358l0 0c0 1.0610809 -0.86016846 1.9212646 -1.921257 1.9212646l0 0c-1.0610809 0 -1.921257 -0.8601837 -1.921257 -1.9212646z" fill-rule="evenodd"/><path stroke="#ff0000" stroke-width="2.0" stroke-linejoin="round" stroke-linecap="butt" d="m125.125 207.54134l0 0c0 -1.0610809 0.8601761 -1.9212646 1.921257 -1.9212646l0 0c0.509552 0 0.9982376 0.2024231 1.3585434 0.5627289c0.3603058 0.3603058 0.5627136 0.84898376 0.5627136 1.3585358l0 0c0 1.0610809 -0.86016846 1.9212646 -1.921257 1.9212646l0 0c-1.0610809 0 -1.921257 -0.8601837 -1.921257 -1.9212646z" fill-rule="evenodd"/><path fill="#ff0000" d="m173.125 207.54134l0 0c0 -1.0610809 0.8601837 -1.9212646 1.9212646 -1.9212646l0 0c0.509552 0 0.99823 0.2024231 1.3585358 0.5627289c0.3603058 0.3603058 0.5627136 0.84898376 0.5627136 1.3585358l0 0c0 1.0610809 -0.86016846 1.9212646 -1.9212494 1.9212646l0 0c-1.0610809 0 -1.9212646 -0.8601837 -1.9212646 -1.9212646z" fill-rule="evenodd"/><path stroke="#ff0000" stroke-width="2.0" stroke-linejoin="round" stroke-linecap="butt" d="m173.125 207.54134l0 0c0 -1.0610809 0.8601837 -1.9212646 1.9212646 -1.9212646l0 0c0.509552 0 0.99823 0.2024231 1.3585358 0.5627289c0.3603058 0.3603058 0.5627136 0.84898376 0.5627136 1.3585358l0 0c0 1.0610809 -0.86016846 1.9212646 -1.9212494 1.9212646l0 0c-1.0610809 0 -1.9212646 -0.8601837 -1.9212646 -1.9212646z" fill-rule="evenodd"/><path fill="#ff0000" d="m221.125 207.54134l0 0c0 -1.0610809 0.8601837 -1.9212646 1.9212646 -1.9212646l0 0c0.509552 0 0.99823 0.2024231 1.3585358 0.5627289c0.3603058 0.3603058 0.5627136 0.84898376 0.5627136 1.3585358l0 0c0 1.0610809 -0.86016846 1.9212646 -1.9212494 1.9212646l0 0c-1.0610809 0 -1.9212646 -0.8601837 -1.9212646 -1.9212646z" fill-rule="evenodd"/><path stroke="#ff0000" stroke-width="2.0" stroke-linejoin="round" stroke-linecap="butt" d="m221.125 207.54134l0 0c0 -1.0610809 0.8601837 -1.9212646 1.9212646 -1.9212646l0 0c0.509552 0 0.99823 0.2024231 1.3585358 0.5627289c0.3603058 0.3603058 0.5627136 0.84898376 0.5627136 1.3585358l0 0c0 1.0610809 -0.86016846 1.9212646 -1.9212494 1.9212646l0 0c-1.0610809 0 -1.9212646 -0.8601837 -1.9212646 -1.9212646z" fill-rule="evenodd"/><path fill="#ff0000" d="m77.375 207.54134l0 0c0 -1.0610809 0.8601761 -1.9212646 1.921257 -1.9212646l0 0c0.509552 0 0.99823 0.2024231 1.3585358 0.5627289c0.3603058 0.3603058 0.5627289 0.84898376 0.5627289 1.3585358l0 0c0 1.0610809 -0.8601761 1.9212646 -1.9212646 1.9212646l0 0c-1.0610809 0 -1.921257 -0.8601837 -1.921257 -1.9212646z" fill-rule="evenodd"/><path stroke="#ff0000" stroke-width="2.0" stroke-linejoin="round" stroke-linecap="butt" d="m77.375 207.54134l0 0c0 -1.0610809 0.8601761 -1.9212646 1.921257 -1.9212646l0 0c0.509552 0 0.99823 0.2024231 1.3585358 0.5627289c0.3603058 0.3603058 0.5627289 0.84898376 0.5627289 1.3585358l0 0c0 1.0610809 -0.8601761 1.9212646 -1.9212646 1.9212646l0 0c-1.0610809 0 -1.921257 -0.8601837 -1.921257 -1.9212646z" fill-rule="evenodd"/><path fill="#ff0000" d="m125.0 159.54134l0 0c0 -1.0610809 0.8601761 -1.9212646 1.921257 -1.9212646l0 0c0.509552 0 0.99823 0.2024231 1.3585434 0.5627289c0.3603058 0.3603058 0.5627136 0.84898376 0.5627136 1.3585358l0 0c0 1.0610809 -0.86016846 1.9212646 -1.921257 1.9212646l0 0c-1.0610809 0 -1.921257 -0.8601837 -1.921257 -1.9212646z" fill-rule="evenodd"/><path stroke="#ff0000" stroke-width="2.0" stroke-linejoin="round" stroke-linecap="butt" d="m125.0 159.54134l0 0c0 -1.0610809 0.8601761 -1.9212646 1.921257 -1.9212646l0 0c0.509552 0 0.99823 0.2024231 1.3585434 0.5627289c0.3603058 0.3603058 0.5627136 0.84898376 0.5627136 1.3585358l0 0c0 1.0610809 -0.86016846 1.9212646 -1.921257 1.9212646l0 0c-1.0610809 0 -1.921257 -0.8601837 -1.921257 -1.9212646z" fill-rule="evenodd"/><path fill="#ff0000" d="m173.0 159.54134l0 0c0 -1.0610809 0.8601837 -1.9212646 1.9212646 -1.9212646l0 0c0.509552 0 0.99823 0.2024231 1.3585358 0.5627289c0.3603058 0.3603058 0.5627136 0.84898376 0.5627136 1.3585358l0 0c0 1.0610809 -0.86016846 1.9212646 -1.9212494 1.9212646l0 0c-1.0610809 0 -1.9212646 -0.8601837 -1.9212646 -1.9212646z" fill-rule="evenodd"/><path stroke="#ff0000" stroke-width="2.0" stroke-linejoin="round" stroke-linecap="butt" d="m173.0 159.54134l0 0c0 -1.0610809 0.8601837 -1.9212646 1.9212646 -1.9212646l0 0c0.509552 0 0.99823 0.2024231 1.3585358 0.5627289c0.3603058 0.3603058 0.5627136 0.84898376 0.5627136 1.3585358l0 0c0 1.0610809 -0.86016846 1.9212646 -1.9212494 1.9212646l0 0c-1.0610809 0 -1.9212646 -0.8601837 -1.9212646 -1.9212646z" fill-rule="evenodd"/><path fill="#ff0000" d="m221.0 159.54134l0 0c0 -1.0610809 0.8601837 -1.9212646 1.9212646 -1.9212646l0 0c0.509552 0 0.99823 0.2024231 1.3585358 0.5627289c0.3603058 0.3603058 0.5627136 0.84898376 0.5627136 1.3585358l0 0c0 1.0610809 -0.86016846 1.9212646 -1.9212494 1.9212646l0 0c-1.0610809 0 -1.9212646 -0.8601837 -1.9212646 -1.9212646z" fill-rule="evenodd"/><path stroke="#ff0000" stroke-width="2.0" stroke-linejoin="round" stroke-linecap="butt" d="m221.0 159.54134l0 0c0 -1.0610809 0.8601837 -1.9212646 1.9212646 -1.9212646l0 0c0.509552 0 0.99823 0.2024231 1.3585358 0.5627289c0.3603058 0.3603058 0.5627136 0.84898376 0.5627136 1.3585358l0 0c0 1.0610809 -0.86016846 1.9212646 -1.9212494 1.9212646l0 0c-1.0610809 0 -1.9212646 -0.8601837 -1.9212646 -1.9212646z" fill-rule="evenodd"/><path fill="#ff0000" d="m77.25 159.54134l0 0c0 -1.0610809 0.8601761 -1.9212646 1.921257 -1.9212646l0 0c0.509552 0 0.99823 0.2024231 1.3585358 0.5627289c0.3603058 0.3603058 0.5627289 0.84898376 0.5627289 1.3585358l0 0c0 1.0610809 -0.8601761 1.9212646 -1.9212646 1.9212646l0 0c-1.0610809 0 -1.921257 -0.8601837 -1.921257 -1.9212646z" fill-rule="evenodd"/><path stroke="#ff0000" stroke-width="2.0" stroke-linejoin="round" stroke-linecap="butt" d="m77.25 159.54134l0 0c0 -1.0610809 0.8601761 -1.9212646 1.921257 -1.9212646l0 0c0.509552 0 0.99823 0.2024231 1.3585358 0.5627289c0.3603058 0.3603058 0.5627289 0.84898376 0.5627289 1.3585358l0 0c0 1.0610809 -0.8601761 1.9212646 -1.9212646 1.9212646l0 0c-1.0610809 0 -1.921257 -0.8601837 -1.921257 -1.9212646z" fill-rule="evenodd"/><path fill="#ff0000" d="m125.125 111.666336l0 0c0 -1.0610809 0.8601761 -1.921257 1.921257 -1.921257l0 0c0.509552 0 0.9982376 0.20241547 1.3585434 0.56272125c0.3603058 0.3603058 0.5627136 0.8489914 0.5627136 1.3585358l0 0c0 1.0610886 -0.86016846 1.9212646 -1.921257 1.9212646l0 0c-1.0610809 0 -1.921257 -0.8601761 -1.921257 -1.9212646z" fill-rule="evenodd"/><path stroke="#ff0000" stroke-width="2.0" stroke-linejoin="round" stroke-linecap="butt" d="m125.125 111.666336l0 0c0 -1.0610809 0.8601761 -1.921257 1.921257 -1.921257l0 0c0.509552 0 0.9982376 0.20241547 1.3585434 0.56272125c0.3603058 0.3603058 0.5627136 0.8489914 0.5627136 1.3585358l0 0c0 1.0610886 -0.86016846 1.9212646 -1.921257 1.9212646l0 0c-1.0610809 0 -1.921257 -0.8601761 -1.921257 -1.9212646z" fill-rule="evenodd"/><path fill="#ff0000" d="m173.125 111.666336l0 0c0 -1.0610809 0.8601837 -1.921257 1.9212646 -1.921257l0 0c0.509552 0 0.99823 0.20241547 1.3585358 0.56272125c0.3603058 0.3603058 0.5627136 0.8489914 0.5627136 1.3585358l0 0c0 1.0610886 -0.86016846 1.9212646 -1.9212494 1.9212646l0 0c-1.0610809 0 -1.9212646 -0.8601761 -1.9212646 -1.9212646z" fill-rule="evenodd"/><path stroke="#ff0000" stroke-width="2.0" stroke-linejoin="round" stroke-linecap="butt" d="m173.125 111.666336l0 0c0 -1.0610809 0.8601837 -1.921257 1.9212646 -1.921257l0 0c0.509552 0 0.99823 0.20241547 1.3585358 0.56272125c0.3603058 0.3603058 0.5627136 0.8489914 0.5627136 1.3585358l0 0c0 1.0610886 -0.86016846 1.9212646 -1.9212494 1.9212646l0 0c-1.0610809 0 -1.9212646 -0.8601761 -1.9212646 -1.9212646z" fill-rule="evenodd"/><path fill="#ff0000" d="m221.125 111.666336l0 0c0 -1.0610809 0.8601837 -1.921257 1.9212646 -1.921257l0 0c0.509552 0 0.99823 0.20241547 1.3585358 0.56272125c0.3603058 0.3603058 0.5627136 0.8489914 0.5627136 1.3585358l0 0c0 1.0610886 -0.86016846 1.9212646 -1.9212494 1.9212646l0 0c-1.0610809 0 -1.9212646 -0.8601761 -1.9212646 -1.9212646z" fill-rule="evenodd"/><path stroke="#ff0000" stroke-width="2.0" stroke-linejoin="round" stroke-linecap="butt" d="m221.125 111.666336l0 0c0 -1.0610809 0.8601837 -1.921257 1.9212646 -1.921257l0 0c0.509552 0 0.99823 0.20241547 1.3585358 0.56272125c0.3603058 0.3603058 0.5627136 0.8489914 0.5627136 1.3585358l0 0c0 1.0610886 -0.86016846 1.9212646 -1.9212494 1.9212646l0 0c-1.0610809 0 -1.9212646 -0.8601761 -1.9212646 -1.9212646z" fill-rule="evenodd"/><path fill="#ff0000" d="m77.375 111.666336l0 0c0 -1.0610809 0.8601761 -1.921257 1.921257 -1.921257l0 0c0.509552 0 0.99823 0.20241547 1.3585358 0.56272125c0.3603058 0.3603058 0.5627289 0.8489914 0.5627289 1.3585358l0 0c0 1.0610886 -0.8601761 1.9212646 -1.9212646 1.9212646l0 0c-1.0610809 0 -1.921257 -0.8601761 -1.921257 -1.9212646z" fill-rule="evenodd"/><path stroke="#ff0000" stroke-width="2.0" stroke-linejoin="round" stroke-linecap="butt" d="m77.375 111.666336l0 0c0 -1.0610809 0.8601761 -1.921257 1.921257 -1.921257l0 0c0.509552 0 0.99823 0.20241547 1.3585358 0.56272125c0.3603058 0.3603058 0.5627289 0.8489914 0.5627289 1.3585358l0 0c0 1.0610886 -0.8601761 1.9212646 -1.9212646 1.9212646l0 0c-1.0610809 0 -1.921257 -0.8601761 -1.921257 -1.9212646z" fill-rule="evenodd"/><path fill="#ff0000" d="m125.0 63.66634l0 0c0 -1.0610847 0.8601761 -1.9212608 1.921257 -1.9212608l0 0c0.509552 0 0.99823 0.20241928 1.3585434 0.56272507c0.3603058 0.3603058 0.5627136 0.84898376 0.5627136 1.3585358l0 0c0 1.0610847 -0.86016846 1.9212608 -1.921257 1.9212608l0 0c-1.0610809 0 -1.921257 -0.8601761 -1.921257 -1.9212608z" fill-rule="evenodd"/><path stroke="#ff0000" stroke-width="2.0" stroke-linejoin="round" stroke-linecap="butt" d="m125.0 63.66634l0 0c0 -1.0610847 0.8601761 -1.9212608 1.921257 -1.9212608l0 0c0.509552 0 0.99823 0.20241928 1.3585434 0.56272507c0.3603058 0.3603058 0.5627136 0.84898376 0.5627136 1.3585358l0 0c0 1.0610847 -0.86016846 1.9212608 -1.921257 1.9212608l0 0c-1.0610809 0 -1.921257 -0.8601761 -1.921257 -1.9212608z" fill-rule="evenodd"/><path fill="#ff0000" d="m173.0 63.66634l0 0c0 -1.0610847 0.8601837 -1.9212608 1.9212646 -1.9212608l0 0c0.509552 0 0.99823 0.20241928 1.3585358 0.56272507c0.3603058 0.3603058 0.5627136 0.84898376 0.5627136 1.3585358l0 0c0 1.0610847 -0.86016846 1.9212608 -1.9212494 1.9212608l0 0c-1.0610809 0 -1.9212646 -0.8601761 -1.9212646 -1.9212608z" fill-rule="evenodd"/><path stroke="#ff0000" stroke-width="2.0" stroke-linejoin="round" stroke-linecap="butt" d="m173.0 63.66634l0 0c0 -1.0610847 0.8601837 -1.9212608 1.9212646 -1.9212608l0 0c0.509552 0 0.99823 0.20241928 1.3585358 0.56272507c0.3603058 0.3603058 0.5627136 0.84898376 0.5627136 1.3585358l0 0c0 1.0610847 -0.86016846 1.9212608 -1.9212494 1.9212608l0 0c-1.0610809 0 -1.9212646 -0.8601761 -1.9212646 -1.9212608z" fill-rule="evenodd"/><path fill="#ff0000" d="m221.0 63.66634l0 0c0 -1.0610847 0.8601837 -1.9212608 1.9212646 -1.9212608l0 0c0.509552 0 0.99823 0.20241928 1.3585358 0.56272507c0.3603058 0.3603058 0.5627136 0.84898376 0.5627136 1.3585358l0 0c0 1.0610847 -0.86016846 1.9212608 -1.9212494 1.9212608l0 0c-1.0610809 0 -1.9212646 -0.8601761 -1.9212646 -1.9212608z" fill-rule="evenodd"/><path stroke="#ff0000" stroke-width="2.0" stroke-linejoin="round" stroke-linecap="butt" d="m221.0 63.66634l0 0c0 -1.0610847 0.8601837 -1.9212608 1.9212646 -1.9212608l0 0c0.509552 0 0.99823 0.20241928 1.3585358 0.56272507c0.3603058 0.3603058 0.5627136 0.84898376 0.5627136 1.3585358l0 0c0 1.0610847 -0.86016846 1.9212608 -1.9212494 1.9212608l0 0c-1.0610809 0 -1.9212646 -0.8601761 -1.9212646 -1.9212608z" fill-rule="evenodd"/><path fill="#ff0000" d="m77.25 63.66634l0 0c0 -1.0610847 0.8601761 -1.9212608 1.921257 -1.9212608l0 0c0.509552 0 0.99823 0.20241928 1.3585358 0.56272507c0.3603058 0.3603058 0.5627289 0.84898376 0.5627289 1.3585358l0 0c0 1.0610847 -0.8601761 1.9212608 -1.9212646 1.9212608l0 0c-1.0610809 0 -1.921257 -0.8601761 -1.921257 -1.9212608z" fill-rule="evenodd"/><path stroke="#ff0000" stroke-width="2.0" stroke-linejoin="round" stroke-linecap="butt" d="m77.25 63.66634l0 0c0 -1.0610847 0.8601761 -1.9212608 1.921257 -1.9212608l0 0c0.509552 0 0.99823 0.20241928 1.3585358 0.56272507c0.3603058 0.3603058 0.5627289 0.84898376 0.5627289 1.3585358l0 0c0 1.0610847 -0.8601761 1.9212608 -1.9212646 1.9212608l0 0c-1.0610809 0 -1.921257 -0.8601761 -1.921257 -1.9212608z" fill-rule="evenodd"/><path fill="#000000" fill-opacity="0.0" d="m57.881233 210.8704l42.48819 0l0 15.5590515l-42.48819 0z" fill-rule="evenodd"/><path fill="#ff0000" d="m70.28795 220.09306l0 -0.9375l2.875 0l0 0.9375l-2.875 0zm3.6423645 -1.46875q0 -1.34375 0.28125 -2.171875q0.28125 -0.828125 0.828125 -1.265625q0.546875 -0.453125 1.375 -0.453125q0.625 0 1.078125 0.25q0.46875 0.234375 0.765625 0.703125q0.3125 0.46875 0.484375 1.140625q0.171875 0.671875 0.171875 1.796875q0 1.34375 -0.28125 2.171875q-0.28125 0.828125 -0.828125 1.28125q-0.546875 0.4375 -1.390625 0.4375q-1.09375 0 -1.71875 -0.78125q-0.765625 -0.953125 -0.765625 -3.109375zm0.96875 0q0 1.875 0.4375 2.5q0.4375 0.625 1.078125 0.625q0.65625 0 1.09375 -0.625q0.4375 -0.625 0.4375 -2.5q0 -1.875 -0.4375 -2.5q-0.4375 -0.625 -1.09375 -0.625q-0.640625 0 -1.03125 0.546875q-0.484375 0.703125 -0.484375 2.578125zm5.4889984 3.765625l0 -1.0625l1.0625 0l0 1.0625l-1.0625 0zm2.4293976 -2.0l0.984375 -0.078125q0.109375 0.71875 0.5 1.078125q0.40625 0.359375 0.96875 0.359375q0.671875 0 1.140625 -0.5q0.46875 -0.515625 0.46875 -1.359375q0 -0.796875 -0.453125 -1.265625q-0.4375 -0.46875 -1.171875 -0.46875q-0.453125 0 -0.8125 0.21875q-0.359375 0.203125 -0.578125 0.53125l-0.875 -0.125l0.734375 -3.921875l3.796875 0l0 0.90625l-3.046875 0l-0.40625 2.046875q0.6875 -0.484375 1.4375 -0.484375q1.0 0 1.6875 0.703125q0.6875 0.6875 0.6875 1.765625q0 1.046875 -0.609375 1.796875q-0.734375 0.921875 -2.0 0.921875q-1.03125 0 -1.703125 -0.578125q-0.65625 -0.578125 -0.75 -1.546875z" fill-rule="nonzero"/><path fill="#000000" fill-opacity="0.0" d="m106.00394 210.87073l42.48819 0l0 15.559067l-42.48819 0z" fill-rule="evenodd"/><path fill="#ff0000" d="m120.27871 218.62463q0 -1.34375 0.28125 -2.171875q0.28125 -0.828125 0.828125 -1.265625q0.546875 -0.453125 1.375 -0.453125q0.625 0 1.078125 0.25q0.46875 0.234375 0.765625 0.703125q0.3125 0.46875 0.484375 1.140625q0.171875 0.671875 0.171875 1.796875q0 1.34375 -0.28125 2.171875q-0.28125 0.828125 -0.828125 1.28125q-0.546875 0.4375 -1.390625 0.4375q-1.09375 0 -1.71875 -0.78125q-0.765625 -0.953125 -0.765625 -3.109375zm0.96875 0q0 1.875 0.4375 2.5q0.4375 0.625 1.078125 0.625q0.65625 0 1.09375 -0.625q0.4375 -0.625 0.4375 -2.5q0 -1.875 -0.4375 -2.5q-0.4375 -0.625 -1.09375 -0.625q-0.640625 0 -1.03125 0.546875q-0.484375 0.703125 -0.484375 2.578125zm5.4889984 3.765625l0 -1.0625l1.0625 0l0 1.0625l-1.0625 0zm2.4294052 -2.0l0.984375 -0.078125q0.109375 0.71875 0.5 1.078125q0.40625 0.359375 0.96875 0.359375q0.671875 0 1.140625 -0.5q0.46875 -0.515625 0.46875 -1.359375q0 -0.796875 -0.453125 -1.265625q-0.4375 -0.46875 -1.171875 -0.46875q-0.453125 0 -0.8125 0.21875q-0.359375 0.203125 -0.578125 0.53125l-0.875 -0.125l0.734375 -3.921875l3.796875 0l0 0.90625l-3.046875 0l-0.40625 2.046875q0.6875 -0.484375 1.4375 -0.484375q1.0 0 1.6875 0.703125q0.6875 0.6875 0.6875 1.765625q0 1.046875 -0.609375 1.796875q-0.734375 0.921875 -2.0 0.921875q-1.03125 0 -1.703125 -0.578125q-0.65625 -0.578125 -0.75 -1.546875z" fill-rule="nonzero"/><path fill="#000000" fill-opacity="0.0" d="m153.8819 210.87073l42.488174 0l0 15.559067l-42.488174 0z" fill-rule="evenodd"/><path fill="#ff0000" d="m171.68791 222.39026l-0.9375 0l0 -5.96875q-0.34375 0.328125 -0.890625 0.65625q-0.546875 0.3125 -0.984375 0.46875l0 -0.90625q0.796875 -0.359375 1.375 -0.890625q0.59375 -0.53125 0.828125 -1.015625l0.609375 0l0 7.65625zm2.9264984 0l0 -1.0625l1.0625 0l0 1.0625l-1.0625 0zm2.4293976 -2.0l0.984375 -0.078125q0.109375 0.71875 0.5 1.078125q0.40625 0.359375 0.96875 0.359375q0.671875 0 1.140625 -0.5q0.46875 -0.515625 0.46875 -1.359375q0 -0.796875 -0.453125 -1.265625q-0.4375 -0.46875 -1.171875 -0.46875q-0.453125 0 -0.8125 0.21875q-0.359375 0.203125 -0.578125 0.53125l-0.875 -0.125l0.734375 -3.921875l3.796875 0l0 0.90625l-3.046875 0l-0.40625 2.046875q0.6875 -0.484375 1.4375 -0.484375q1.0 0 1.6875 0.703125q0.6875 0.6875 0.6875 1.765625q0 1.046875 -0.609375 1.796875q-0.734375 0.921875 -2.0 0.921875q-1.03125 0 -1.703125 -0.578125q-0.65625 -0.578125 -0.75 -1.546875z" fill-rule="nonzero"/><path fill="#000000" fill-opacity="0.0" d="m201.8819 210.87073l42.488174 0l0 15.559067l-42.488174 0z" fill-rule="evenodd"/><path fill="#ff0000" d="m221.07854 221.48401l0 0.90625l-5.03125 0q-0.015625 -0.34375 0.109375 -0.65625q0.1875 -0.515625 0.609375 -1.015625q0.421875 -0.5 1.234375 -1.140625q1.234375 -1.03125 1.671875 -1.625q0.4375 -0.59375 0.4375 -1.125q0 -0.5625 -0.40625 -0.9375q-0.390625 -0.390625 -1.03125 -0.390625q-0.671875 0 -1.078125 0.40625q-0.40625 0.40625 -0.40625 1.125l-0.96875 -0.09375q0.09375 -1.078125 0.734375 -1.640625q0.65625 -0.5625 1.734375 -0.5625q1.109375 0 1.75 0.609375q0.640625 0.609375 0.640625 1.5q0 0.46875 -0.1875 0.90625q-0.1875 0.4375 -0.625 0.9375q-0.4375 0.484375 -1.453125 1.328125q-0.828125 0.71875 -1.078125 0.96875q-0.234375 0.25 -0.390625 0.5l3.734375 0zm1.5358734 0.90625l0 -1.0625l1.0625 0l0 1.0625l-1.0625 0zm2.4293976 -2.0l0.984375 -0.078125q0.109375 0.71875 0.5 1.078125q0.40625 0.359375 0.96875 0.359375q0.671875 0 1.140625 -0.5q0.46875 -0.515625 0.46875 -1.359375q0 -0.796875 -0.453125 -1.265625q-0.4375 -0.46875 -1.171875 -0.46875q-0.453125 0 -0.8125 0.21875q-0.359375 0.203125 -0.578125 0.53125l-0.875 -0.125l0.734375 -3.921875l3.796875 0l0 0.90625l-3.046875 0l-0.40625 2.046875q0.6875 -0.484375 1.4375 -0.484375q1.0 0 1.6875 0.703125q0.6875 0.6875 0.6875 1.765625q0 1.046875 -0.609375 1.796875q-0.734375 0.921875 -2.0 0.921875q-1.03125 0 -1.703125 -0.578125q-0.65625 -0.578125 -0.75 -1.546875z" fill-rule="nonzero"/><path fill="#000000" fill-opacity="0.0" d="m34.048996 255.30873l42.48819 0l0 15.559036l-42.48819 0z" fill-rule="evenodd"/><path fill="#000000" d="m50.899284 264.53137l0 -0.9375l2.875 0l0 0.9375l-2.875 0zm7.1736145 2.296875l-0.9375 0l0 -5.96875q-0.34375 0.328125 -0.890625 0.65625q-0.546875 0.3125 -0.984375 0.46875l0 -0.90625q0.796875 -0.359375 1.375 -0.890625q0.59375 -0.53125 0.828125 -1.015625l0.609375 0l0 7.65625z" fill-rule="nonzero"/><path fill="#000000" fill-opacity="0.0" d="m82.1717 255.30905l42.48819 0l0 15.5590515l-42.48819 0z" fill-rule="evenodd"/><path fill="#000000" d="m100.890045 263.06296q0 -1.34375 0.28125 -2.171875q0.28125 -0.828125 0.828125 -1.265625q0.546875 -0.453125 1.375 -0.453125q0.625 0 1.078125 0.25q0.46875 0.234375 0.765625 0.703125q0.3125 0.46875 0.484375 1.140625q0.171875 0.671875 0.171875 1.796875q0 1.34375 -0.28125 2.171875q-0.28125 0.828125 -0.828125 1.28125q-0.546875 0.4375 -1.390625 0.4375q-1.09375 0 -1.71875 -0.78125q-0.765625 -0.953125 -0.765625 -3.109375zm0.96875 0q0 1.875 0.4375 2.5q0.4375 0.625 1.078125 0.625q0.65625 0 1.09375 -0.625q0.4375 -0.625 0.4375 -2.5q0 -1.875 -0.4375 -2.5q-0.4375 -0.625 -1.09375 -0.625q-0.640625 0 -1.03125 0.546875q-0.484375 0.703125 -0.484375 2.578125z" fill-rule="nonzero"/><path fill="#000000" fill-opacity="0.0" d="m130.04965 255.30905l42.48819 0l0 15.5590515l-42.48819 0z" fill-rule="evenodd"/><path fill="#000000" d="m152.29924 266.82858l-0.9375 0l0 -5.96875q-0.34375 0.328125 -0.890625 0.65625q-0.546875 0.3125 -0.984375 0.46875l0 -0.90625q0.796875 -0.359375 1.375 -0.890625q0.59375 -0.53125 0.828125 -1.015625l0.609375 0l0 7.65625z" fill-rule="nonzero"/><path fill="#000000" fill-opacity="0.0" d="m178.04965 255.30905l42.48819 0l0 15.5590515l-42.48819 0z" fill-rule="evenodd"/><path fill="#000000" d="m201.68987 265.92233l0 0.90625l-5.03125 0q-0.015625 -0.34375 0.109375 -0.65625q0.1875 -0.515625 0.609375 -1.015625q0.421875 -0.5 1.234375 -1.140625q1.234375 -1.03125 1.671875 -1.625q0.4375 -0.59375 0.4375 -1.125q0 -0.5625 -0.40625 -0.9375q-0.390625 -0.390625 -1.03125 -0.390625q-0.671875 0 -1.078125 0.40625q-0.40625 0.40625 -0.40625 1.125l-0.96875 -0.09375q0.09375 -1.078125 0.734375 -1.640625q0.65625 -0.5625 1.734375 -0.5625q1.109375 0 1.75 0.609375q0.640625 0.609375 0.640625 1.5q0 0.46875 -0.1875 0.90625q-0.1875 0.4375 -0.625 0.9375q-0.4375 0.484375 -1.453125 1.328125q-0.828125 0.71875 -1.078125 0.96875q-0.234375 0.25 -0.390625 0.5l3.734375 0z" fill-rule="nonzero"/><path fill="#000000" fill-opacity="0.0" d="m226.04965 255.30905l42.48819 0l0 15.5590515l-42.48819 0z" fill-rule="evenodd"/><path fill="#000000" d="m244.78362 264.81296l0.9375 -0.125q0.15625 0.796875 0.546875 1.15625q0.390625 0.34375 0.9375 0.34375q0.65625 0 1.109375 -0.453125q0.46875 -0.46875 0.46875 -1.140625q0 -0.640625 -0.421875 -1.0625q-0.421875 -0.421875 -1.078125 -0.421875q-0.265625 0 -0.65625 0.109375l0.109375 -0.828125q0.09375 0.015625 0.140625 0.015625q0.59375 0 1.078125 -0.3125q0.484375 -0.3125 0.484375 -0.96875q0 -0.515625 -0.359375 -0.84375q-0.34375 -0.34375 -0.890625 -0.34375q-0.546875 0 -0.921875 0.34375q-0.359375 0.34375 -0.453125 1.03125l-0.9375 -0.171875q0.171875 -0.9375 0.78125 -1.453125q0.609375 -0.515625 1.5 -0.515625q0.625 0 1.15625 0.265625q0.53125 0.265625 0.796875 0.734375q0.28125 0.453125 0.28125 0.984375q0 0.484375 -0.265625 0.890625q-0.265625 0.40625 -0.78125 0.65625q0.671875 0.15625 1.046875 0.65625q0.375 0.484375 0.375 1.21875q0 1.0 -0.734375 1.703125q-0.71875 0.6875 -1.828125 0.6875q-1.0 0 -1.671875 -0.59375q-0.65625 -0.609375 -0.75 -1.5625z" fill-rule="nonzero"/><path fill="#000000" fill-opacity="0.0" d="m15.66032 252.75589l0 -42.48819l15.590551 -0.03149414l0 42.48819z" fill-rule="evenodd"/><path fill="#000000" d="m24.898722 235.88693l-0.9375 0.0018920898l0 -2.875l0.9375 -0.0018920898l0 2.875zm2.296875 -7.178253l0 0.9375l-5.96875 0.012054443q0.328125 0.34309387 0.65625 0.8892975q0.3125 0.5462494 0.46875 0.98342896l-0.90625 0.0018310547q-0.359375 -0.7961426 -0.890625 -1.3731995q-0.53125 -0.5926819 -1.015625 -0.82606506l0 -0.609375l7.65625 -0.015472412z" fill-rule="nonzero"/><path fill="#000000" fill-opacity="0.0" d="m15.660648 204.63318l0 -42.48819l15.590551 -0.03149414l0 42.48819z" fill-rule="evenodd"/><path fill="#000000" d="m23.4303 185.89914q-1.34375 0.0027160645 -2.171875 -0.27685547q-0.828125 -0.2795868 -1.265625 -0.8255768q-0.453125 -0.5459595 -0.453125 -1.3740845q0 -0.625 0.25 -1.0786285q0.234375 -0.46922302 0.703125 -0.76704407q0.46875 -0.31344604 1.140625 -0.48667908q0.671875 -0.17323303 1.796875 -0.17550659q1.34375 -0.0027160645 2.171875 0.27685547q0.828125 0.2795868 1.28125 0.82554626q0.4375 0.54599 0.4375 1.38974q0 1.09375 -0.78125 1.7203217q-0.953125 0.7675476 -3.109375 0.7719116zm0 -0.96875q1.875 -0.0037841797 2.5 -0.44255066q0.625 -0.43876648 0.625 -1.0793915q0 -0.65625 -0.625 -1.0924835q-0.625 -0.43623352 -2.5 -0.43244934q-1.875 0.0037841797 -2.5 0.44255066q-0.625 0.43876648 -0.625 1.0950165q0 0.640625 0.546875 1.0301361q0.703125 0.48295593 2.578125 0.47917175z" fill-rule="nonzero"/><path fill="#000000" fill-opacity="0.0" d="m15.660648 156.75523l0 -42.488197l15.590551 -0.03149414l0 42.488182z" fill-rule="evenodd"/><path fill="#000000" d="m27.195923 134.48233l0 0.9375l-5.96875 0.012054443q0.328125 0.34309387 0.65625 0.8892975q0.3125 0.5462494 0.46875 0.98342896l-0.90625 0.0018310547q-0.359375 -0.7961426 -0.890625 -1.3731995q-0.53125 -0.5926819 -1.015625 -0.82606506l0 -0.609375l7.65625 -0.015472412z" fill-rule="nonzero"/><path fill="#000000" fill-opacity="0.0" d="m15.660648 108.755226l0 -42.48819l15.590551 -0.03149414l0 42.48819z" fill-rule="evenodd"/><path fill="#000000" d="m26.289675 85.09354l0.90625 -0.0018310547l0 5.03125q-0.34375 0.016319275 -0.65625 -0.108047485q-0.515625 -0.1864624 -1.015625 -0.6073227q-0.5 -0.42086792 -1.140625 -1.2320709q-1.03125 -1.2322922 -1.625 -1.6685944q-0.59375 -0.43630219 -1.125 -0.43522644q-0.5625 0.0011367798 -0.9375 0.4081421q-0.390625 0.39141083 -0.390625 1.0320358q0 0.671875 0.40625 1.0773087q0.40625 0.40542603 1.125 0.40397644l-0.09375 0.96894073q-1.078125 -0.09157562 -1.640625 -0.73106384q-0.5625 -0.6551132 -0.5625 -1.7332382q0 -1.109375 0.609375 -1.7512283q0.609375 -0.64186096 1.5 -0.64365387q0.46875 -9.536743E-4 0.90625 0.18566895q0.4375 0.18661499 0.9375 0.6231003q0.484375 0.43652344 1.328125 1.4504471q0.71875 0.8266678 0.96875 1.0761642q0.25 0.23387146 0.5 0.38961792l0 -3.734375z" fill-rule="nonzero"/><path fill="#000000" fill-opacity="0.0" d="m15.660648 60.755226l0 -42.48819l15.590551 -0.031496048l0 42.48819z" fill-rule="evenodd"/><path fill="#000000" d="m25.1803 42.002026l-0.125 -0.93724823q0.796875 -0.1578598 1.15625 -0.5492096q0.34375 -0.39131927 0.34375 -0.9381943q0 -0.65625 -0.453125 -1.1084595q-0.46875 -0.46780396 -1.140625 -0.46644592q-0.640625 0.0012931824 -1.0625 0.42401886q-0.421875 0.4227295 -0.421875 1.0789795q0 0.265625 0.109375 0.65602875l-0.828125 -0.10770416q0.015625 -0.09378052 0.015625 -0.14065552q0 -0.59375 -0.3125 -1.0774918q-0.3125 -0.48374557 -0.96875 -0.48241806q-0.515625 0.0010414124 -0.84375 0.36108017q-0.34375 0.34444427 -0.34375 0.8913193q0 0.546875 0.34375 0.9211807q0.34375 0.3586769 1.03125 0.45103836l-0.171875 0.93784714q-0.9375 -0.1699791 -1.453125 -0.7783127q-0.515625 -0.6083336 -0.515625 -1.4989586q0 -0.625 0.265625 -1.1567879q0.265625 -0.53178406 0.734375 -0.7983589q0.453125 -0.28216553 0.984375 -0.28323746q0.484375 -9.765625E-4 0.890625 0.26382446q0.40625 0.26480484 0.65625 0.7799263q0.15625 -0.6721916 0.65625 -1.0482025q0.484375 -0.37597656 1.21875 -0.37746048q1.0 -0.0020217896 1.703125 0.73093414q0.6875 0.71736145 0.6875 1.8267365q0 1.0 -0.59375 1.6730728q-0.609375 0.65748215 -1.5625 0.75315857z" fill-rule="nonzero"/><path fill="#000000" fill-opacity="0.0" d="m55.348732 228.95348l0 -42.48819l15.590553 -0.03149414l0 42.48819z" fill-rule="evenodd"/><path fill="#ff0000" d="m64.587135 216.5281l-0.9375038 0.0018920898l0 -2.875l0.9375038 -0.0018920898l0 2.875zm-1.4687538 -3.6394043q-1.34375 0.0027160645 -2.171875 -0.27685547q-0.828125 -0.2795868 -1.265625 -0.8255768q-0.453125 -0.5459595 -0.453125 -1.3740845q0 -0.625 0.25 -1.0786285q0.234375 -0.46922302 0.703125 -0.76704407q0.46875 -0.31344604 1.140625 -0.48667908q0.671875 -0.17323303 1.796875 -0.17550659q1.3437538 -0.0027160645 2.1718788 0.27687073q0.828125 0.27957153 1.28125 0.825531q0.4375 0.54599 0.4375 1.38974q0 1.09375 -0.78125 1.7203217q-0.953125 0.76756287 -3.1093788 0.7719116zm0 -0.96875q1.8750038 -0.0037841797 2.5000038 -0.44255066q0.625 -0.43876648 0.625 -1.0793915q0 -0.65625 -0.625 -1.0924835q-0.625 -0.43623352 -2.5000038 -0.43244934q-1.875 0.0037841797 -2.5 0.44255066q-0.625 0.43876648 -0.625 1.0950165q0 0.640625 0.546875 1.0301361q0.703125 0.48295593 2.578125 0.47917175zm3.7656288 -5.4965973l-1.0625 0.0021362305l0 -1.0625l1.0625 -0.0021362305l0 1.0625zm-2.0 -2.4253693l-0.078125 -0.98420715q0.71875 -0.110839844 1.078125 -0.502182q0.359375 -0.40698242 0.359375 -0.9694824q0 -0.671875 -0.5 -1.1396027q-0.515625 -0.4677124 -1.359375 -0.46600342q-0.7968788 0.0016021729 -1.2656288 0.45567322q-0.46875 0.43844604 -0.46875 1.172821q0 0.453125 0.21875 0.8120575q0.203125 0.358963 0.53125 0.5770569l-0.125 0.87524414l-3.921875 -0.7264404l0 -3.796875l0.90625 -0.0018310547l0 3.046875l2.046875 0.40211487q-0.484375 -0.68652344 -0.484375 -1.4365234q0 -1.0 0.703125 -1.6889191q0.6875 -0.68888855 1.7656288 -0.69107056q1.046875 -0.0021209717 1.796875 0.6057434q0.921875 0.7325134 0.921875 1.9981384q0 1.03125 -0.578125 1.7042999q-0.578125 0.65740967 -1.546875 0.7531128z" fill-rule="nonzero"/><path fill="#000000" fill-opacity="0.0" d="m55.34906 180.83078l0 -42.48819l15.590553 -0.03149414l0 42.48819z" fill-rule="evenodd"/><path fill="#ff0000" d="m63.11871 166.54031q-1.34375 0.0027008057 -2.171875 -0.27687073q-0.828125 -0.27957153 -1.265625 -0.8255615q-0.453125 -0.5459595 -0.453125 -1.3740845q0 -0.625 0.25 -1.0786285q0.234375 -0.46922302 0.703125 -0.76704407q0.46875 -0.3134613 1.140625 -0.48669434q0.671875 -0.17321777 1.796875 -0.17549133q1.3437538 -0.0027160645 2.1718788 0.27685547q0.828125 0.27957153 1.28125 0.825531q0.4375 0.54599 0.4375 1.38974q0 1.09375 -0.78125 1.7203369q-0.953125 0.7675476 -3.1093788 0.7719116zm0 -0.96875q1.8750038 -0.0037994385 2.5000038 -0.44255066q0.625 -0.43876648 0.625 -1.0793915q0 -0.65625 -0.625 -1.0924835q-0.625 -0.43624878 -2.5000038 -0.43244934q-1.875 0.0037841797 -2.5 0.44255066q-0.625 0.43875122 -0.625 1.0950012q0 0.640625 0.546875 1.0301514q0.703125 0.48295593 2.578125 0.47917175zm3.7656288 -5.4966125l-1.0625 0.0021514893l0 -1.0625l1.0625 -0.0021514893l0 1.0625zm-2.0 -2.425354l-0.078125 -0.9842224q0.71875 -0.110824585 1.078125 -0.502182q0.359375 -0.40696716 0.359375 -0.96946716q0 -0.671875 -0.5 -1.1396179q-0.515625 -0.4677124 -1.359375 -0.46600342q-0.7968788 0.0016174316 -1.2656288 0.45568848q-0.46875 0.43844604 -0.46875 1.172821q0 0.453125 0.21875 0.8120575q0.203125 0.358963 0.53125 0.5770416l-0.125 0.8752594l-3.921875 -0.7264557l0 -3.796875l0.90625 -0.0018310547l0 3.046875l2.046875 0.40211487q-0.484375 -0.68652344 -0.484375 -1.4365234q0 -1.0 0.703125 -1.6889191q0.6875 -0.68888855 1.7656288 -0.69107056q1.046875 -0.002105713 1.796875 0.60575867q0.921875 0.73249817 0.921875 1.9981232q0 1.03125 -0.578125 1.7042999q-0.578125 0.6574249 -1.546875 0.75312805z" fill-rule="nonzero"/><path fill="#000000" fill-opacity="0.0" d="m55.34906 132.95282l0 -42.488182l15.590553 -0.03150177l0 42.48819z" fill-rule="evenodd"/><path fill="#ff0000" d="m66.88434 115.1235l0 0.9375l-5.968754 0.012054443q0.328125 0.34309387 0.65625 0.8893051q0.3125 0.54624176 0.46875 0.98342896l-0.90625 0.0018310547q-0.359375 -0.7961502 -0.890625 -1.3732071q-0.53125 -0.59267426 -1.015625 -0.8260727l0 -0.609375l7.656254 -0.015464783zm0 -2.9264984l-1.0625 0.0021438599l0 -1.0625l1.0625 -0.0021438599l0 1.0625zm-2.0 -2.425354l-0.078125 -0.9842224q0.71875 -0.110824585 1.078125 -0.5021744q0.359375 -0.4069748 0.359375 -0.9694748q0 -0.671875 -0.5 -1.1396179q-0.515625 -0.46770477 -1.359375 -0.46600342q-0.7968788 0.0016098022 -1.2656288 0.45568085q-0.46875 0.43844604 -0.46875 1.172821q0 0.453125 0.21875 0.8120575q0.203125 0.35897064 0.53125 0.5770569l-0.125 0.87525177l-3.921875 -0.7264557l0 -3.796875l0.90625 -0.0018310547l0 3.046875l2.046875 0.40211487q-0.484375 -0.6865158 -0.484375 -1.4365158q0 -1.0 0.703125 -1.6889267q0.6875 -0.68888855 1.7656288 -0.6910629q1.046875 -0.0021133423 1.796875 0.6057434q0.921875 0.7325134 0.921875 1.9981384q0 1.03125 -0.578125 1.7042923q-0.578125 0.6574173 -1.546875 0.75312805z" fill-rule="nonzero"/><path fill="#000000" fill-opacity="0.0" d="m55.34906 84.95282l0 -42.488186l15.590553 -0.03149414l0 42.488186z" fill-rule="evenodd"/><path fill="#ff0000" d="m65.97809 65.7347l0.90625 -0.0018310547l0 5.03125q-0.34375 0.016319275 -0.65625 -0.108047485q-0.515625 -0.1864624 -1.015625 -0.6073227q-0.5 -0.42086792 -1.140625 -1.2320709q-1.0312538 -1.2322922 -1.6250038 -1.6685944q-0.59375 -0.43630219 -1.125 -0.43522644q-0.5625 0.0011367798 -0.9375 0.4081421q-0.390625 0.39141846 -0.390625 1.0320435q0 0.671875 0.40625 1.077301q0.40625 0.40542603 1.125 0.40397644l-0.09375 0.96894073q-1.078125 -0.09157562 -1.640625 -0.73106384q-0.5625 -0.6551132 -0.5625 -1.7332382q0 -1.109375 0.609375 -1.7512283q0.609375 -0.64185333 1.5 -0.64365387q0.46875 -9.460449E-4 0.90625 0.18566895q0.4375 0.18661499 0.9375 0.6231079q0.484375 0.4365158 1.3281288 1.4504395q0.71875 0.8266754 0.96875 1.0761642q0.25 0.23387146 0.5 0.38961792l0 -3.734375zm0.90625 -1.5377045l-1.0625 0.0021438599l0 -1.0624962l1.0625 -0.0021476746l0 1.0625zm-2.0 -2.4253578l-0.078125 -0.9842148q0.71875 -0.1108284 1.078125 -0.5021782q0.359375 -0.4069786 0.359375 -0.9694786q0 -0.671875 -0.5 -1.1396141q-0.515625 -0.4677086 -1.359375 -0.46600342q-0.7968788 0.0016098022 -1.2656288 0.45568085q-0.46875 0.43844604 -0.46875 1.172821q0 0.453125 0.21875 0.8120613q0.203125 0.358963 0.53125 0.57704926l-0.125 0.87525177l-3.921875 -0.7264519l0 -3.796875l0.90625 -0.00182724l0 3.046875l2.046875 0.40211487q-0.484375 -0.68652344 -0.484375 -1.4365234q0 -1.0 0.703125 -1.6889191q0.6875 -0.68888855 1.7656288 -0.69106674q1.046875 -0.002117157 1.796875 0.6057434q0.921875 0.7325134 0.921875 1.9981384q0 1.03125 -0.578125 1.7042923q-0.578125 0.6574173 -1.546875 0.75312424z" fill-rule="nonzero"/></g></svg>
